ply
format ascii 1.0
comment Created with the Wolfram Language : www.wolfram.com
element vertex 802
property float x
property float y
property float z
element face 1600
property list uint uint vertex_index
end_header
-6.30382 -2.11786 0.227423
-6.53436 -1.99171 0.190975
-6.51316 -2.05185 0.187183
8.99042 -0.256218 0.380963
8.03597 -1.26055 0.648641
9.18448 -1.04154 0.481516
1.48927 -1.87229 1.08859
3.30367 -3.02518 1.07264
2.68132 -1.69909 1.04752
3.80046 1.58956 0.618173
4.46832 1.31144 0.615157
3.90932 1.73001 0.595107
9.20625 -0.135743 0.326158
9.17241 -0.254447 0.358854
9.32623 -0.199695 0.317231
-6.27483 1.75881 0.495518
-6.87563 2.92481 0.270963
-7.77081 1.91136 0.164483
-0.246498 4.1808 0.463132
-0.296105 4.62205 0.34196
-0.934458 4.90514 0.307941
0.527552 0.115537 1.04072
1.99066 0.687048 0.900608
0.447816 2.04793 0.829224
-3.54028 -2.92851 0.65331
-4.25912 -3.32304 0.456451
-3.88397 -3.49771 0.499438
-8.57759 4.03023 -0.210565
-8.47557 3.90991 -0.138686
-8.54004 4.07243 -0.211344
-5.81668 -2.79859 0.21037
-5.97042 -2.62564 0.206167
-6.02132 -2.75253 0.179568
7.77917 -3.62566 0.864662
8.49287 -4.0546 0.818758
8.50201 -3.91754 0.82598
-4.7546 6.03265 -0.0439832
-4.62536 5.59314 0.105225
-4.46687 5.85025 0.0384543
-6.27961 -2.2924 0.198065
3.28969 -4.33359 1.03387
2.97254 -4.25259 1.02612
7.6762 -5.20508 0.820229
7.26723 -5.19663 0.859661
6.899 -5.40616 0.857252
-2.34177 -4.20866 0.628317
-2.9271 -3.79797 0.634534
-2.79409 -4.11623 0.583314
-2.07009 -3.05458 0.812632
-0.564784 -0.691264 1.08767
-2.19843 -0.348562 1.03985
-0.91843 -1.74356 1.04659
-7.64613 -1.05663 0.042454
-7.71039 -0.88294 0.0390734
-8.0229 -1.29444 -0.102086
3.16451 -4.37052 1.02049
3.58785 -5.31049 0.94658
3.72015 -4.66038 1.01142
-4.50422 -2.6489 0.501346
0.579053 3.8013 0.471432
0.267484 4.52971 0.333911
0.0829768 4.43886 0.374013
9.18272 -2.97497 0.705791
7.48582 -2.37811 0.828804
0.704539 -5.67901 0.682485
0.769487 -5.74522 0.674719
0.842282 -5.67907 0.696137
9.32689 -0.273169 0.330862
9.2229 -0.477166 0.38623
9.39931 -3.70612 0.683356
9.07288 -3.76589 0.738154
9.3956 -3.80274 0.650305
9.67584 -3.43584 0.616937
-3.6394 4.31846 0.453297
-4.61888 3.42046 0.547446
-4.59403 3.23752 0.586382
-6.79882 -2.09158 0.104212
-1.77337 5.41457 0.176179
-1.79012 5.20687 0.25924
-0.981235 4.97765 0.28608
3.44265 0.24353 0.854102
-6.8281 -1.29885 0.203596
-7.27547 -1.89428 0.00850227
-6.87864 -0.89577 0.254482
6.57524 0.894257 0.459479
6.10951 0.602033 0.553755
6.73279 0.343033 0.504162
-4.78644 6.16949 -0.100872
-4.68658 6.09659 -0.0548773
-4.5131 6.21553 -0.110278
-1.9606 1.12205 1.0076
-1.742 0.963095 1.02163
-1.6738 2.70203 0.803612
8.83213 0.295101 0.291432
-6.04692 5.3097 0.0572289
-6.28884 5.00177 0.095314
-5.11566 4.7721 0.271148
-4.4407 -2.44526 0.556738
-2.36381 4.76021 0.417888
-1.85384 4.40515 0.489957
10.1209 -2.06577 0.472182
9.78023 -1.92701 0.534126
10.1184 -2.53771 0.512979
-5.48601 -0.120767 0.615056
-6.17435 -1.44381 0.33649
-5.21774 -0.691335 0.620076
9.46601 -0.818936 0.414421
9.42388 -0.980272 0.447235
9.90822 -0.895781 0.327596
-4.40745 5.6313 0.111105
-4.07112 6.04317 -0.0128971
7.01273 -4.97898 0.874012
6.89615 -3.65205 0.911747
6.3919 -5.06871 0.892379
10.0096 -2.71512 0.557063
-8.2935 -0.660548 -0.0815365
-8.29525 -0.621084 -0.0807707
-8.11426 -0.93737 -0.079048
2.57687 -5.6617 0.834563
2.73084 -5.21811 0.927086
2.27266 -5.59529 0.836966
-9.35549 1.97307 -0.296021
-9.33341 2.12851 -0.305017
-9.39316 2.33443 -0.327964
6.06785 -0.352018 0.673286
4.27541 -0.130499 0.829881
-8.60285 0.106848 -0.121994
-8.82335 0.583775 -0.159259
-8.59294 0.0964746 -0.117137
-7.00234 0.723637 0.353277
-5.49098 0.905207 0.667059
-3.0866 4.54973 0.443536
-3.88385 4.60676 0.381413
-2.98357 5.03512 0.348161
-3.02936 5.33408 0.256125
-3.77754 5.48004 0.188588
0.784651 4.37879 0.322341
-0.322202 1.00076 1.00262
-0.0389112 1.52686 0.923918
-6.69031 -1.10674 0.261452
-9.40552 2.46285 -0.322147
-9.50507 2.57036 -0.401261
7.35515 0.594646 0.411643
6.88429 0.431179 0.485066
7.5114 0.503931 0.416169
4.66366 -4.2153 1.00241
4.80985 -4.66356 0.965828
4.89779 -3.97713 1.00544
-0.853248 0.378019 1.05867
-9.06844 2.43939 -0.175072
-9.42935 2.16167 -0.33279
-6.3354 5.80912 -0.087719
-6.30288 5.77581 -0.0795088
-6.3029 5.93186 -0.133206
-3.55323 5.9487 0.0328005
-3.68928 5.56545 0.168847
4.19471 -2.7046 1.04106
4.57656 -2.1562 0.997707
8.21302 0.0425075 0.425255
7.64135 -0.0160126 0.479537
7.72965 -0.980904 0.633707
-8.1585 4.03242 -0.0917499
-8.61414 3.65439 -0.142918
-7.16213 3.36867 0.156376
-3.47757 -3.21485 0.634413
-2.41896 -0.480471 1.01738
-3.33051 -1.12029 0.890173
-2.53725 -2.38559 0.848876
-6.00655 -2.5672 0.214263
-6.61248 5.74783 -0.111216
-6.82151 5.62769 -0.108975
-6.33039 5.39402 0.0230062
-5.36353 6.09184 -0.106701
1.04031 -2.85228 1.07494
1.85601 -4.84089 0.916723
-1.59041 -4.69374 0.631394
-1.22585 -4.39879 0.710067
-1.71418 -4.30308 0.681549
2.09641 -5.01654 0.92138
-2.93313 -4.32224 0.485519
-4.34721 -3.96886 0.30134
-0.735369 -5.24639 0.620175
0.666438 -3.23254 1.00085
0.620516 -2.75308 1.05847
-0.325246 -3.58006 0.935909
5.24944 -4.67699 0.952763
0.260621 -4.40398 0.900771
2.77327 -0.0529744 0.942707
2.26672 -0.0384111 0.956147
2.27488 -1.3663 1.04913
-6.11126 3.57988 0.316854
-5.94409 3.19649 0.395438
-4.34896 -1.70808 0.667045
-5.08414 -0.327415 0.680167
-3.39378 -0.396849 0.9428
-5.0918 0.107152 0.71306
-9.22417 3.15845 -0.305176
-9.3349 3.03493 -0.344765
-9.24248 3.0399 -0.295426
-8.26124 4.59414 -0.228818
-8.0547 4.80852 -0.202562
-7.94946 5.09342 -0.249146
-5.20017 -2.37977 0.414022
-5.44114 -2.1195 0.405264
-4.05473 5.39548 0.201203
-6.88829 4.79912 0.0401876
-6.51056 4.07697 0.188864
-6.71703 4.77548 0.0705568
-8.3312 0.242755 -0.0291934
-8.4505 0.0400034 -0.055029
3.15433 -0.989983 0.996747
-8.36767 4.4268 -0.221384
-7.97429 4.29777 -0.0842597
-8.37115 4.53282 -0.265925
-9.38324 2.74883 -0.335771
2.21126 -1.39782 1.04244
-4.31772 5.53207 0.14429
-4.0265 4.52904 0.393435
3.96721 -4.90718 0.980689
4.32378 -5.72741 0.891422
4.82212 -5.10634 0.929892
-3.92019 5.89595 0.0439522
-3.99899 5.89705 0.0337746
6.80706 1.0413 0.399131
6.89036 1.48208 0.298501
-8.4856 4.17506 -0.212248
-8.74252 3.98884 -0.278493
-8.78009 2.85791 -0.0946578
-9.14812 2.64698 -0.215418
5.12617 -0.982558 0.887089
4.82351 1.47376 0.551111
4.69506 1.30295 0.586216
-5.87773 -2.22961 0.296317
-0.559773 2.90218 0.724045
-1.34692 4.59533 0.43023
9.94206 -1.03802 0.351309
9.37723 -1.31519 0.508294
10.015 -1.21638 0.370928
10.2242 -2.54687 0.47266
-7.65163 5.20166 -0.179977
-7.81686 4.95772 -0.169763
-3.14793 1.89676 0.883474
-2.68644 -0.275241 1.00904
-9.33931 2.5934 -0.289848
-0.465964 -2.5342 1.04805
5.74415 -5.57892 0.877288
5.34722 -4.98541 0.9267
0.43667 -4.5446 0.901216
-1.1197 -4.21548 0.747117
10.0335 -2.9704 0.558088
9.82258 -3.30023 0.612544
9.95342 -3.28233 0.582454
-0.204731 -0.431699 1.06975
0.48125 -2.44353 1.09088
1.30149 -1.11036 1.06079
-9.13446 1.64606 -0.182041
-8.05322 2.29631 0.0957721
8.04999 0.232889 0.402248
7.56652 0.605997 0.383064
8.62605 0.0553049 0.371945
8.6699 -3.91968 0.802511
1.98994 -5.59001 0.80901
2.24252 -5.72721 0.804914
1.16166 -5.47205 0.775008
1.0984 -4.77224 0.893955
0.6298 -4.92989 0.850969
9.33347 -4.07201 0.674073
-2.41152 5.46082 0.19459
-2.6267 5.23545 0.287552
-2.29211 5.12156 0.314438
-8.95675 3.52735 -0.256971
-8.86329 3.38079 -0.187893
3.05712 2.50561 0.52237
2.72577 2.00797 0.657919
6.32024 1.32694 0.408685
6.1196 1.59326 0.381015
8.15038 0.719726 0.285288
8.94913 -2.19126 0.667088
-6.08738 5.88182 -0.0929558
-1.94126 -4.11257 0.694049
1.60975 -5.62744 0.786602
-3.35867 -3.19381 0.656874
5.63524 1.71232 0.413839
5.5757 2.13727 0.332622
1.31443 3.06498 0.563266
0.94849 2.8219 0.642674
1.85221 2.09365 0.72174
-7.53438 -0.834419 0.0983723
5.95066 0.993781 0.516447
-0.449749 -3.57496 0.928893
-2.13268 0.358484 1.04803
-4.31068 6.06989 -0.0297096
-2.68126 4.54081 0.457563
2.17358 2.64461 0.581795
1.5514 -5.4566 0.818558
3.72949 -5.81446 0.861629
3.66212 -5.72269 0.873343
-8.94405 1.24078 -0.131674
-9.01754 0.622549 -0.199704
-8.85406 0.725561 -0.117197
1.64341 -5.25699 0.859883
3.95229 -5.89502 0.847137
5.88217 -5.75817 0.849581
6.39254 -1.77108 0.875422
6.38169 -0.863331 0.745533
3.9113 -0.207419 0.879709
-7.71004 4.63578 -0.0885933
-7.32276 4.80079 -0.0224871
-7.69264 0.321 0.162293
1.78044 -0.310245 1.00163
-4.54061 1.08941 0.796811
-6.47175 2.85019 0.352168
-0.0341079 3.64468 0.546667
9.47028 -0.655395 0.385024
10.2157 -1.35734 0.330343
10.0651 -1.07944 0.326414
6.99392 -5.17351 0.866729
-8.8816 0.628134 -0.177439
9.23699 -1.74371 0.580462
9.0971 -1.31442 0.54117
-8.85748 3.20151 -0.162955
-1.23027 -1.98397 1.03112
6.40096 1.07148 0.443279
9.40675 -0.288903 0.32023
9.44575 -0.238874 0.297457
9.02908 -4.36372 0.700847
9.2635 -4.08814 0.687185
6.33904 -5.67949 0.843675
9.65419 -0.716975 0.358122
9.68304 -0.618852 0.327597
8.58006 0.310529 0.316982
1.38775 -5.17694 0.847108
-8.22646 0.0805218 -0.0138925
-7.22795 1.0852 0.30461
-7.18492 0.874803 0.310962
0.296426 -5.41613 0.700706
4.87954 -1.63413 0.967417
-8.4614 -0.384023 -0.118683
-8.5303 -0.212427 -0.134894
-8.64009 -0.0274275 -0.13953
8.2378 -4.42507 0.840938
-7.94705 4.87579 -0.187471
0.520252 3.3301 0.571997
0.496709 2.76197 0.67598
0.545963 3.0213 0.625725
5.73372 -2.32419 0.968252
5.60398 -2.37984 0.970588
5.31667 -2.76566 0.992872
5.8769 -1.11348 0.831386
5.56265 -1.39611 0.899613
9.4534 -4.00295 0.65373
6.26188 -5.45187 0.874301
6.57174 -5.3551 0.869938
8.56733 -4.66399 0.754395
-8.37487 1.32138 0.0163134
-8.69299 1.65357 -0.0621681
9.58481 -0.536544 0.334349
9.65434 -3.37074 0.610649
-5.58208 1.49753 0.629642
4.67974 -3.79503 1.02188
4.44882 -4.45981 1.00188
-5.41153 1.36692 0.656819
6.71592 -0.0699692 0.575097
-9.01438 3.69446 -0.326433
2.77537 0.2279 0.910345
2.89109 1.28785 0.7701
-4.94757 -3.80825 0.183462
-8.06476 4.69494 -0.179816
-7.85587 4.31385 -0.059557
10.2365 -1.73354 0.384316
10.3183 -2.0533 0.380898
10.2363 -2.74183 0.471801
-8.05985 -1.03128 -0.0747649
-6.44102 4.72239 0.112847
-5.38517 -1.80843 0.457942
4.21238 2.32101 0.446835
-0.560396 -0.698082 0.181423
-0.88491 -1.72339 0.141156
-2.15879 -0.329304 0.134642
3.20731 -4.25907 0.122106
3.72379 -4.57289 0.109376
3.60717 -5.18306 0.0495121
-8.6951 0.765709 -0.0576825
10.0121 -1.33507 0.397108
-8.97082 1.54259 -0.142085
-0.3137 4.86037 0.259412
-0.395927 0.167067 1.06111
8.14739 -1.87335 0.728172
6.73073 -2.89378 0.925618
7.95766 0.898814 0.270285
-3.97351 6.00006 0.0101254
8.4679 0.534889 0.286894
-4.01365 -3.52924 0.466017
7.2879 -5.10949 0.860589
9.43371 -0.442397 0.348145
10.1277 -1.93974 0.454066
10.1832 -1.82538 0.42027
8.64033 0.231605 0.32777
-7.12526 3.88257 0.117147
-7.5904 4.38926 -0.00993271
-7.21705 4.65874 0.015842
-7.59713 4.48471 -0.0317813
5.2218 -5.27193 0.910592
-0.519301 0.477577 1.05486
-8.72222 0.915595 -0.0546577
-8.79449 1.09291 -0.0872312
10.261 -1.93349 0.399023
-2.22321 -4.02305 -0.250794
-2.62349 -3.87244 -0.272728
-2.77664 -3.62622 -0.242513
-6.10704 -1.98021 -0.646463
-6.29166 -1.89725 -0.677906
-6.31946 -1.87508 -0.681698
3.7258 1.45069 -0.274288
3.84234 1.58464 -0.296926
4.38094 1.18001 -0.277275
9.05885 -0.342203 -0.543894
9.13487 -0.405651 -0.544341
9.02605 -0.423419 -0.519422
7.72233 -3.63585 -0.0397762
8.41265 -3.91236 -0.0758703
8.37475 -3.99875 -0.0780535
8.87876 -0.415768 -0.504147
9.0865 -1.19257 -0.406703
7.95161 -1.39692 -0.24334
0.485628 0.0493968 0.137826
0.394844 1.90372 -0.0639403
1.94096 0.587246 0.00121199
-6.10664 1.70676 -0.393497
-7.57221 1.88741 -0.719444
-6.70731 2.83201 -0.614701
-8.23543 3.77674 -1.01057
-8.24162 3.82862 -1.03161
-8.20221 3.7187 -0.981332
-0.310282 3.97113 -0.416249
-0.994322 4.64231 -0.557321
-0.346915 4.38445 -0.531144
1.47607 -1.89257 0.182631
2.66542 -1.72082 0.141641
3.29355 -3.01917 0.166434
3.30557 -4.26267 0.130511
3.00924 -4.17708 0.123736
7.57442 -5.06307 -0.0690494
6.84438 -5.27947 -0.0384648
7.21507 -5.13424 -0.0429633
0.510567 3.61564 -0.41298
0.0148831 4.22463 -0.503946
0.173376 4.2259 -0.514725
-4.67706 5.79821 -0.915975
-4.41207 5.57489 -0.82324
-4.5613 5.34003 -0.762633
9.79803 -2.76671 -0.322664
9.60795 -2.03778 -0.348707
9.85186 -2.59327 -0.351424
-7.41661 -0.952074 -0.828022
-7.6592 -1.02395 -0.886876
-7.46799 -0.794526 -0.829701
-1.97549 -2.94077 -0.0814828
-4.31788 -2.49385 -0.371914
-3.38062 -2.81399 -0.231414
-4.07298 -3.17014 -0.417227
-6.06853 -2.12907 -0.668027
-3.70137 -3.32672 -0.371632
-2.6638 4.36965 -0.432236
-2.63604 4.96861 -0.578504
-2.37757 4.53636 -0.460203
-5.30197 -0.0455389 -0.269146
-5.04104 -0.600011 -0.264106
-5.98367 -1.34106 -0.543526
-8.09812 -0.601398 -0.964528
-7.96572 -0.867496 -0.970339
-8.21005 -0.623222 -0.983035
2.61503 -5.49432 -0.0553095
2.3332 -5.42157 -0.0504457
2.76682 -5.09315 0.0301837
4.6168 -4.16536 0.0987178
4.85503 -3.94098 0.100887
4.76853 -4.60106 0.0626502
7.25063 0.413088 -0.470091
7.41386 0.327403 -0.467385
6.80421 0.294315 -0.407233
-6.58028 -1.94965 -0.763798
-9.13137 1.93939 -1.1735
-9.1231 2.30714 -1.19264
-9.15541 2.06814 -1.19159
-8.75398 2.4315 -1.02501
-9.00459 2.12514 -1.13253
-6.68078 -0.793456 -0.624
-6.62352 -1.18026 -0.671291
9.21859 -3.67887 -0.204307
8.92174 -3.73473 -0.154892
9.05886 -3.00861 -0.191355
9.16165 -0.439977 -0.544476
9.09708 -0.6319 -0.497833
-1.88217 4.96001 -0.600276
-1.04555 4.66585 -0.56244
-1.83406 4.93839 -0.605244
-1.8703 4.20542 -0.393888
6.97957 -4.95401 -0.0313168
6.36364 -5.02303 -0.0123076
6.85311 -3.63297 0.00669057
-0.848172 0.339635 0.153216
-1.74694 0.875678 0.119587
-0.352178 0.914451 0.100954
-3.59314 4.1608 -0.437963
-4.49463 3.11709 -0.306343
-4.5227 3.26539 -0.340273
7.40808 -2.45692 -0.0706906
9.6751 -3.50227 -0.286905
9.44574 -3.92524 -0.246257
-4.7197 5.70252 -0.874713
-4.46972 5.69176 -0.848606
-4.6118 5.76955 -0.896779
3.36625 0.127204 -0.0414282
-6.26558 5.55722 -0.955484
-6.1844 5.55208 -0.947495
-6.25106 5.56112 -0.958467
3.11165 -1.054 0.0937384
4.54318 -2.1947 0.0928607
4.16063 -2.72822 0.135728
-7.44247 5.01023 -1.04076
-7.5928 4.78181 -1.03011
-7.56996 4.81272 -1.02279
9.8357 -2.15382 -0.383542
9.82059 -2.59587 -0.337308
9.74404 -1.21177 -0.515837
9.79065 -1.39601 -0.48857
9.24459 -1.46183 -0.376154
-2.95929 4.81614 -0.53093
-3.73332 5.23754 -0.683524
-3.02326 5.04637 -0.603254
-2.09126 0.32977 0.143156
1.07439 -2.78046 0.172152
2.63665 1.83784 -0.227776
1.78345 1.93444 -0.167792
2.0932 2.45952 -0.301734
-4.2821 5.73352 -0.87077
2.228 -1.40665 0.136362
9.32438 -0.96437 -0.46883
9.65048 -1.10313 -0.516159
9.28026 -1.13035 -0.434918
0.644049 4.0201 -0.497977
-3.04442 4.38817 -0.447228
-3.84065 4.41542 -0.503385
-6.50651 -0.992129 -0.618565
-3.65498 5.28737 -0.693034
-3.57543 5.55483 -0.783117
-0.0749088 1.40559 0.0265089
5.98405 -0.496368 -0.217492
4.18185 -0.263167 -0.0617413
6.01099 0.476261 -0.338333
-2.75101 -4.05647 -0.36156
-0.589731 -4.96491 -0.228885
-4.12797 -3.6376 -0.513244
-1.6799 2.5589 -0.091273
-5.3362 0.902207 -0.225901
-6.80404 0.754497 -0.530505
-8.58845 0.114926 -1.02812
-8.62188 0.125299 -1.0225
-8.69527 0.537639 -1.05526
4.59912 1.1885 -0.307675
5.85036 0.844993 -0.37189
8.69013 0.0854332 -0.57875
-8.9559 2.4492 -1.10891
-8.95435 2.47889 -1.11518
-8.85109 3.0178 -1.11904
-8.87198 2.93839 -1.11626
-8.8462 2.91396 -1.09834
-6.75933 4.65817 -0.84573
-6.58563 4.63869 -0.815651
-6.38246 3.96716 -0.701573
-5.2606 -1.98641 -0.472822
-5.64358 -2.6558 -0.667692
-5.70405 -2.08797 -0.581815
6.69132 0.877829 -0.484738
6.76874 1.29945 -0.580816
2.15469 -4.90076 0.0244176
-5.28921 5.70961 -0.925067
-5.02552 4.59895 -0.613859
5.21878 -4.62095 0.0487373
1.91293 -4.75301 0.0165112
-1.47125 -4.50229 -0.246383
-1.62776 -4.15403 -0.208204
-1.14589 -4.26412 -0.182578
-4.92376 -0.248531 -0.208315
-4.93962 0.147942 -0.17942
-3.28016 -0.361377 0.04437
-4.19286 -1.60795 -0.220057
-3.30613 -3.09018 -0.246727
-5.02529 -2.2377 -0.463801
-6.45693 5.43231 -0.946437
-6.23335 5.1942 -0.855629
-6.65363 5.37604 -0.963277
0.707382 -3.14893 0.0993598
-0.272694 -3.46584 0.0383926
0.663144 -2.63858 0.160462
4.72743 1.3215 -0.337104
5.04609 -1.11043 -0.00654404
-0.608527 2.73899 -0.166087
-1.38742 4.37001 -0.446658
8.11952 -0.122574 -0.460945
7.64837 -1.116 -0.258753
7.56223 -0.158133 -0.412027
-7.95872 3.91176 -0.967464
-7.00097 3.27406 -0.730428
-8.35568 3.52734 -1.00222
-4.2633 5.29134 -0.727736
-4.36173 5.36851 -0.755031
-4.04734 5.69948 -0.851143
-4.00885 5.16529 -0.674153
-3.9724 4.34613 -0.492545
-4.26576 -2.29961 -0.320491
-5.9837 5.10407 -0.823147
-6.1867 4.85732 -0.793531
0.794721 -5.49073 -0.199423
0.931378 -5.49655 -0.187092
0.849333 -5.49509 -0.192691
-1.94386 1.0362 0.105554
6.4743 0.756357 -0.430543
6.64995 0.219781 -0.389867
2.28002 -1.38917 0.143156
-8.67453 1.25067 -0.996897
-8.53912 0.830973 -0.960429
-8.73824 0.612545 -1.06182
-3.84939 5.64287 -0.82339
-3.85683 5.73584 -0.846648
2.72635 -0.136852 0.0415375
3.93929 -4.82197 0.0788549
4.7935 -5.0344 0.0269255
4.30988 -5.59717 -0.00534384
-8.10158 0.288699 -0.904695
-8.2018 0.107291 -0.923916
-8.02003 4.19161 -1.02461
-7.93227 4.22279 -0.995721
-7.74701 4.14229 -0.947694
-6.93663 -1.58835 -0.774403
-3.22583 -1.03737 -0.00621345
-2.43541 -2.29263 -0.0468536
-2.60962 -0.253665 0.106275
2.30062 -5.4739 -0.0633024
2.0436 -5.43861 -0.0829217
1.2392 -5.29589 -0.110598
0.706779 -4.7483 -0.0335903
1.13586 -4.6531 -0.00367825
0.49861 -2.41306 0.185275
1.28165 -1.14335 0.155328
8.84165 -2.27725 -0.228677
-3.23491 -3.08966 -0.234855
-0.412256 -2.45371 0.146951
-0.226609 -0.451967 0.163965
-8.18826 4.00627 -1.05156
-8.33119 3.73777 -1.04603
0.354679 -4.27853 0.00815843
0.51183 -4.42014 0.00667506
1.68095 -5.4443 -0.0981215
-8.50725 2.78718 -0.955992
-8.80954 2.56888 -1.05245
-8.91823 2.53033 -1.08988
-3.08305 1.81381 -0.0166669
-1.84952 -3.97409 -0.196877
7.94543 0.0516053 -0.479538
7.45282 0.401737 -0.492546
8.043 0.531048 -0.594607
-0.46064 4.38916 -0.500662
8.51401 -0.137331 -0.506509
8.4718 0.117045 -0.561761
-8.57669 0.0414415 -1.04096
-7.2912 -0.745047 -0.770087
-8.01032 0.154972 -0.890866
-7.46026 0.375094 -0.712019
-6.97316 3.80092 -0.772539
-7.07149 4.53003 -0.869365
-8.9233 2.64342 -1.10952
-7.14806 4.64278 -0.89762
5.32484 -4.92209 0.0229122
2.97562 2.33 -0.362989
9.13743 -3.97545 -0.205467
6.20598 1.15864 -0.47447
6.00874 1.41172 -0.499949
-8.59127 3.34862 -1.0668
-8.53577 3.24626 -1.02214
9.7554 -3.48504 -0.282696
9.68124 -3.28508 -0.282518
-2.44354 5.12543 -0.646738
-2.32971 4.83945 -0.545994
-8.8232 1.65487 -1.03314
3.68774 -5.58426 -0.0219347
3.76345 -5.6238 -0.0237171
5.72171 -5.50067 -0.025329
5.85613 -5.59386 -0.0412993
3.97773 -5.63145 -0.019598
3.84624 -0.321487 -0.017007
5.53466 1.53569 -0.469352
-1.03056 -4.07503 -0.143766
-0.369671 -3.44154 0.0360716
1.61974 -5.28979 -0.0696125
-6.0236 5.6178 -0.957577
-5.82506 -2.55878 -0.68373
1.24323 2.88195 -0.321479
0.89377 2.6468 -0.244844
-7.89322 4.35356 -1.0213
-7.7646 4.58998 -1.03288
6.31204 -1.8703 -0.021806
9.77413 -2.97986 -0.310237
9.6582 -3.23829 -0.273259
-7.86016 2.24923 -0.788452
8.52896 -3.88474 -0.0920615
5.47072 1.94375 -0.546511
1.70413 -5.12679 -0.034939
-2.34202 -0.418875 0.116479
-5.97032 3.45682 -0.569902
-5.81017 3.07972 -0.493254
-6.32131 2.7459 -0.535433
6.30329 -1.01209 -0.145009
-7.50558 4.4746 -0.956671
-1.16107 -1.92201 0.129611
1.76114 -0.361741 0.0970167
-4.42849 1.0512 -0.101696
9.30246 -0.829991 -0.488302
6.29382 0.912336 -0.442463
-8.54941 3.0943 -1.0085
-0.101272 3.47237 -0.340543
-8.72914 0.55012 -1.06739
1.46195 -5.04417 -0.0463169
9.45175 -0.889931 -0.50816
9.43466 -0.837134 -0.516209
8.8499 -4.25803 -0.181235
9.09568 -4.00832 -0.199836
9.23075 -0.483043 -0.54734
9.18587 -0.482112 -0.535992
6.28518 -5.53141 -0.0488022
8.40613 -4.57123 -0.132598
8.14962 -4.37504 -0.0596536
9.36825 -0.735202 -0.522961
-8.16767 1.33079 -0.865913
9.13199 -1.85456 -0.312863
8.99552 -1.44693 -0.349597
-7.01551 1.09069 -0.576401
-6.95858 0.897331 -0.566311
-7.72329 4.69518 -1.04692
9.83495 -1.51377 -0.47706
9.77783 -1.29971 -0.504438
0.410994 -5.22246 -0.177196
4.83212 -1.7015 0.0648895
6.96898 -5.13972 -0.0385773
-5.87988 -2.48379 -0.684351
-8.34966 -0.387923 -1.01804
-8.4258 -0.216519 -1.03512
0.461568 3.15779 -0.315813
0.443951 2.58717 -0.211716
0.494657 2.859 -0.264426
6.23102 -5.36704 -0.0274725
6.54248 -5.28937 -0.0334816
9.22918 -3.90144 -0.218488
5.70274 -2.37952 0.0641926
5.28091 -2.78084 0.0874244
5.58356 -2.43166 0.066021
5.7928 -1.25391 -0.05999
5.50533 -1.48676 -0.000298496
5.2033 -5.2079 0.00676588
-5.30001 1.30681 -0.240562
-8.59636 3.44612 -1.09124
-5.45678 1.431 -0.265466
4.11944 2.13436 -0.435132
2.72229 0.125194 0.0114702
2.81433 1.15656 -0.12333
-8.46303 1.65716 -0.938782
2.23134 -0.118095 0.0540706
-5.89471 -2.41875 -0.672754
4.64384 -3.77224 0.116602
4.41024 -4.40302 0.0982042
6.63546 -0.213937 -0.31605
-6.32852 4.60555 -0.778802
-7.66159 4.18108 -0.934757
-7.82902 4.52324 -1.03789
9.81631 -2.74196 -0.331287
-5.20877 -1.69575 -0.423835
-4.63109 -3.42386 -0.573792
-7.90841 -0.989189 -0.967312
9.84163 -1.85885 -0.421754
9.83821 -2.13885 -0.38301
9.84063 -2.04661 -0.398873
9.78967 -1.489 -0.467868
-8.74968 1.54863 -1.02095
-8.46876 0.869225 -0.929116
-0.425453 0.133107 0.155951
6.66965 -2.92125 0.0218154
8.06167 -1.97972 -0.167752
7.84764 0.7126 -0.609807
8.36248 0.355245 -0.595126
-3.90192 5.67399 -0.832429
-3.83237 -3.35595 -0.404876
9.27043 -0.625509 -0.524297
7.24144 -5.07633 -0.043892
8.53697 0.0254487 -0.548678
-7.40766 4.25464 -0.887331
-7.39701 4.31795 -0.899815
9.88507 -1.94929 -0.426545
-0.545119 0.420397 0.150756
-8.45536 0.931019 -0.920618
9.84843 -2.02933 -0.402178
-8.50657 1.07514 -0.946373
3 0 1 2
3 3 4 5
3 6 7 8
3 9 10 11
3 12 13 14
3 15 16 17
3 18 19 20
3 21 22 23
3 24 25 26
3 27 28 29
3 30 31 32
3 33 34 35
3 36 37 38
3 2 39 0
3 40 7 41
3 42 43 44
3 45 46 47
3 46 45 48
3 49 50 51
3 52 53 54
3 55 56 57
3 58 25 24
3 59 60 61
3 33 62 63
3 64 65 66
3 67 13 68
3 69 62 70
3 69 71 72
3 73 74 75
3 76 2 1
3 77 78 79
3 80 10 9
3 81 52 82
3 83 52 81
3 84 85 86
3 87 88 89
3 90 91 92
3 93 3 12
3 94 95 96
3 24 97 58
3 78 98 99
3 100 101 102
3 103 104 105
3 106 107 108
3 109 110 38
3 111 112 113
3 114 102 101
3 115 116 117
3 118 119 120
3 121 122 123
3 124 85 125
3 126 127 128
3 15 129 130
3 131 132 73
3 133 134 135
3 136 60 59
3 137 138 91
3 0 104 1
3 138 92 91
3 104 139 81
3 140 141 123
3 142 143 144
3 145 146 147
3 148 137 91
3 149 123 150
3 151 152 153
3 134 154 155
3 156 157 8
3 158 159 160
3 161 162 163
3 132 131 133
3 26 164 24
3 165 166 167
3 119 118 56
3 31 168 32
3 169 170 171
3 172 96 37
3 173 174 41
3 175 176 177
3 119 178 120
3 179 180 181
3 182 183 184
3 185 113 112
3 81 76 1
3 186 182 184
3 187 188 189
3 190 191 74
3 192 97 24
3 193 194 195
3 196 197 198
3 199 200 201
3 202 203 30
3 132 135 204
3 205 206 207
3 208 126 209
3 8 157 210
3 211 212 213
3 214 198 197
3 119 56 55
3 189 215 8
3 210 187 189
3 216 110 109
3 216 217 204
3 218 219 220
3 218 56 219
3 221 222 110
3 223 142 224
3 225 226 29
3 119 55 41
3 227 198 228
3 193 105 192
3 124 125 229
3 230 10 231
3 203 232 30
3 233 234 92
3 235 236 237
3 102 238 100
3 239 201 240
3 152 151 169
3 99 234 78
3 241 194 242
3 174 173 182
3 178 41 174
3 149 228 243
3 121 150 122
3 183 244 184
3 226 225 211
3 245 113 246
3 186 247 182
3 181 186 248
3 249 250 251
3 252 253 254
3 62 72 250
3 150 121 255
3 256 227 149
3 144 257 258
3 93 259 3
3 260 70 62
3 40 41 55
3 120 261 262
3 263 264 265
3 3 158 4
3 3 13 12
3 69 70 266
3 267 268 269
3 77 154 267
3 253 173 6
3 170 205 207
3 270 271 162
3 272 273 9
3 274 224 275
3 257 144 159
3 257 276 258
3 236 235 107
3 277 62 114
3 278 152 171
3 254 6 215
3 151 153 169
3 279 48 45
3 280 65 262
3 65 64 181
3 46 48 281
3 141 214 197
3 282 283 230
3 284 285 286
3 287 53 52
3 39 76 32
3 282 288 275
3 223 224 274
3 232 104 0
3 8 215 6
3 184 289 248
3 269 98 78
3 234 20 79
3 41 7 173
3 148 290 50
3 291 89 38
3 99 292 92
3 273 293 286
3 289 244 48
3 80 125 10
3 231 85 288
3 24 167 166
3 280 294 263
3 118 295 296
3 232 0 39
3 16 163 256
3 29 226 27
3 290 242 50
3 89 291 110
3 38 110 291
3 297 298 299
3 181 176 175
3 179 45 47
3 69 72 62
3 74 217 96
3 66 265 64
3 300 261 178
3 219 301 302
3 219 302 245
3 110 216 221
3 133 268 134
3 211 213 226
3 303 63 160
3 304 303 160
3 229 125 305
3 240 306 307
3 117 53 115
3 308 287 83
3 23 233 138
3 292 73 92
3 9 11 272
3 309 21 254
3 310 130 195
3 15 191 311
3 307 170 239
3 233 312 18
3 313 68 106
3 314 315 237
3 113 316 111
3 127 317 298
3 126 208 127
3 318 319 277
3 254 21 252
3 18 312 61
3 309 215 189
3 196 320 271
3 163 162 256
3 298 128 127
3 61 19 18
3 165 321 50
3 4 158 160
3 274 322 223
3 5 236 107
3 244 289 184
3 323 324 67
3 67 14 13
3 325 326 70
3 327 42 44
3 328 329 313
3 313 106 328
3 322 85 84
3 257 158 330
3 174 331 300
3 174 182 264
3 53 332 115
3 233 18 234
3 61 312 59
3 177 45 175
3 333 308 334
3 231 10 125
3 181 64 335
3 336 229 305
3 23 286 285
3 62 35 260
3 31 30 232
3 76 39 2
3 90 241 290
3 216 109 37
3 59 284 136
3 337 338 339
3 105 193 103
3 34 33 340
3 332 337 115
3 201 341 240
3 204 135 221
3 186 335 247
3 161 28 162
3 311 191 190
3 333 15 17
3 342 285 284
3 343 344 233
3 269 77 267
3 155 135 134
3 78 77 269
3 234 79 78
3 311 190 16
3 132 217 73
3 179 47 46
3 345 346 347
3 348 349 303
3 234 99 92
3 92 241 90
3 131 73 292
3 96 217 216
3 266 350 69
3 350 266 325
3 204 221 216
3 194 193 192
3 249 62 250
3 83 139 103
3 320 196 198
3 106 108 328
3 351 352 113
3 331 294 300
3 261 120 178
3 262 301 295
3 316 113 352
3 353 340 42
3 208 308 354
3 355 297 354
3 342 344 285
3 329 324 356
3 56 218 57
3 279 45 177
3 357 72 71
3 312 342 59
3 176 248 177
3 194 241 310
3 75 191 358
3 336 305 210
3 346 349 336
3 359 147 347
3 23 285 343
3 152 169 171
3 119 41 178
3 68 323 67
3 313 329 356
3 37 87 172
3 245 351 113
3 193 195 103
3 57 40 55
3 218 360 57
3 214 228 198
3 361 130 310
3 44 316 352
3 362 160 159
3 348 303 304
3 301 262 65
3 120 262 118
3 178 174 300
3 75 241 73
3 213 201 363
3 92 73 241
3 226 213 363
3 199 201 213
3 325 260 34
3 233 344 312
3 357 250 72
3 33 35 62
3 364 365 22
3 359 40 360
3 194 310 195
3 24 166 192
3 366 58 202
3 306 367 368
3 306 341 200
3 29 161 225
3 202 97 192
3 161 29 28
3 307 205 170
3 213 212 199
3 226 162 28
3 74 96 190
3 369 370 314
3 371 249 251
3 53 117 372
3 96 373 206
3 320 227 162
3 248 279 177
3 82 32 76
3 244 51 321
3 7 156 8
3 149 227 228
3 124 348 304
3 173 7 6
3 345 349 346
3 114 249 371
3 114 62 249
3 284 59 342
3 293 136 284
3 145 360 146
3 301 219 56
3 148 91 290
3 91 90 290
3 254 253 6
3 141 140 243
3 341 201 200
3 15 358 191
3 361 75 358
3 367 306 200
3 321 165 167
3 192 374 202
3 232 374 104
3 267 154 134
3 281 24 164
3 11 375 272
3 376 377 378
3 379 380 381
3 209 126 339
3 127 382 299
3 283 275 224
3 128 339 126
3 159 158 257
3 237 383 314
3 237 315 235
3 355 384 297
3 108 329 328
3 101 369 383
3 324 108 315
3 259 330 158
3 385 19 60
3 229 349 348
3 61 60 19
3 297 255 298
3 11 10 375
3 337 332 209
3 268 98 269
3 229 336 349
3 292 99 98
3 209 338 337
3 386 21 137
3 237 236 383
3 316 44 43
3 309 189 188
3 353 325 34
3 387 4 63
3 28 27 226
3 215 309 254
3 212 368 367
3 362 304 160
3 5 107 106
3 211 225 161
3 63 388 33
3 16 190 163
3 149 355 256
3 130 358 15
3 276 389 258
3 362 159 143
3 274 275 288
3 8 210 189
3 274 288 322
3 75 361 310
3 150 255 149
3 210 80 187
3 92 138 233
3 143 223 84
3 130 361 358
3 179 46 26
3 375 230 283
3 128 298 339
3 339 338 209
3 357 251 250
3 212 367 199
3 367 200 199
3 374 105 104
3 194 192 166
3 389 224 142
3 222 390 110
3 4 160 63
3 347 388 345
3 63 303 388
3 391 257 330
3 180 392 25
3 273 286 365
3 169 153 170
3 185 146 220
3 40 57 360
3 277 63 62
3 48 321 167
3 324 14 67
3 255 355 149
3 273 365 9
3 392 26 25
3 391 276 257
3 79 20 385
3 140 149 243
3 33 112 111
3 364 80 365
3 83 129 308
3 123 149 140
3 77 385 136
3 42 340 393
3 366 180 25
3 356 394 313
3 5 106 68
3 255 384 355
3 162 363 270
3 101 395 396
3 162 226 363
3 244 253 51
3 369 314 383
3 327 44 352
3 235 108 107
3 305 125 80
3 351 327 352
3 133 292 268
3 118 296 56
3 330 93 391
3 93 397 259
3 212 211 161
3 398 161 163
3 82 52 54
3 83 287 52
3 103 129 83
3 124 304 362
3 309 188 22
3 229 348 124
3 82 54 366
3 359 347 156
3 336 157 346
3 86 85 362
3 296 301 56
3 207 171 170
3 399 398 400
3 401 399 400
3 239 240 307
3 32 82 366
3 143 159 144
3 188 364 22
3 174 264 331
3 86 143 84
3 277 387 63
3 101 318 277
3 322 84 223
3 23 343 233
3 185 147 146
3 21 138 137
3 296 295 301
3 118 262 295
3 115 337 116
3 7 40 359
3 401 307 306
3 69 350 71
3 292 98 268
3 133 131 292
3 341 306 240
3 265 335 64
3 278 171 94
3 95 373 96
3 146 360 220
3 246 402 245
3 391 389 276
3 17 256 355
3 101 277 114
3 265 264 247
3 162 271 320
3 270 196 271
3 110 390 154
3 222 221 390
3 372 117 116
3 386 403 148
3 309 22 21
3 96 172 94
3 132 133 135
3 335 265 247
3 155 221 135
3 172 278 94
3 136 385 60
3 77 79 385
3 278 153 152
3 267 134 268
3 362 85 124
3 231 125 85
3 85 322 288
3 230 288 282
3 136 272 375
3 283 282 275
3 299 382 404
3 397 93 330
3 259 397 330
3 317 127 299
3 37 96 216
3 161 398 368
3 5 68 3
3 387 319 4
3 17 16 256
3 306 368 401
3 36 87 37
3 280 66 65
3 66 263 265
3 86 362 143
3 130 103 195
3 130 129 103
3 17 354 333
3 168 39 32
3 363 196 270
3 223 143 142
3 374 232 203
3 188 187 364
3 245 302 351
3 305 80 210
3 329 108 324
3 183 253 244
3 172 87 89
3 22 365 286
3 138 21 23
3 183 182 173
3 247 264 182
3 370 238 371
3 49 386 148
3 50 49 148
3 368 212 161
3 347 157 156
3 307 401 400
3 359 360 145
3 368 399 401
3 368 398 399
3 43 393 316
3 153 278 172
3 324 323 356
3 394 68 313
3 186 181 335
3 248 186 184
3 360 218 220
3 43 42 393
3 7 359 156
3 81 1 104
3 294 280 261
3 300 294 261
3 109 38 37
3 88 38 89
3 263 66 280
3 405 297 299
3 405 354 297
3 382 208 354
3 299 298 317
3 261 280 262
3 202 30 366
3 283 136 375
3 144 258 142
3 258 389 142
3 139 104 103
3 30 32 366
3 33 111 340
3 353 34 340
3 214 243 228
3 214 141 243
3 307 400 205
3 398 206 400
3 20 19 385
3 234 18 20
3 220 246 185
3 371 102 114
3 12 14 93
3 16 15 311
3 112 347 147
3 388 347 112
3 14 324 93
3 15 333 129
3 327 351 302
3 112 33 388
3 246 113 185
3 26 180 179
3 206 205 400
3 164 26 46
3 180 26 392
3 373 207 206
3 207 373 95
3 181 180 366
3 70 260 325
3 206 398 163
3 35 34 260
3 245 402 219
3 272 293 273
3 25 58 366
3 88 36 38
3 97 202 58
3 80 364 187
3 9 365 80
3 242 165 50
3 166 165 242
3 279 248 48
3 167 281 48
3 231 288 230
3 375 10 230
3 88 87 36
3 272 136 293
3 5 319 236
3 70 326 266
3 326 325 266
3 236 101 383
3 206 163 190
3 22 286 23
3 284 286 293
3 319 387 277
3 190 96 206
3 5 4 319
3 183 173 253
3 320 198 227
3 95 171 207
3 221 155 154
3 95 94 171
3 333 334 129
3 308 208 332
3 168 31 232
3 232 39 168
3 108 235 315
3 281 164 46
3 167 24 281
3 81 82 76
3 221 154 390
3 359 145 147
3 290 241 242
3 217 132 204
3 74 73 217
3 242 194 166
3 175 45 179
3 372 54 53
3 49 253 252
3 253 49 51
3 147 185 112
3 139 83 81
3 331 264 263
3 285 344 343
3 248 176 181
3 248 289 48
3 263 294 331
3 208 382 127
3 369 406 370
3 68 394 323
3 394 356 323
3 256 162 227
3 395 370 406
3 354 308 333
3 404 405 299
3 17 355 354
3 345 388 303
3 241 75 310
3 75 74 191
3 312 344 342
3 396 369 101
3 100 395 101
3 345 303 349
3 384 255 297
3 121 298 255
3 181 175 179
3 395 100 370
3 51 50 321
3 369 396 406
3 220 402 246
3 220 219 402
3 157 336 210
3 49 252 386
3 252 21 386
3 370 100 238
3 347 346 157
3 158 3 259
3 371 238 102
3 13 3 68
3 405 404 354
3 318 236 319
3 148 403 137
3 403 386 137
3 393 340 111
3 287 332 53
3 404 382 354
3 203 202 374
3 111 316 393
3 318 101 236
3 105 374 192
3 396 395 406
3 208 209 332
3 129 334 308
3 407 408 409
3 410 411 412
3 413 414 415
3 416 417 418
3 419 420 421
3 422 423 424
3 425 426 427
3 428 429 430
3 431 432 433
3 434 435 436
3 437 438 439
3 287 308 332
3 440 441 439
3 442 443 444
3 445 446 447
3 448 449 450
3 451 452 453
3 454 455 456
3 409 457 407
3 458 459 460
3 411 410 461
3 48 244 321
3 122 150 123
3 459 462 460
3 463 464 465
3 466 467 468
3 469 470 471
3 472 473 474
3 475 476 477
3 478 479 480
3 481 412 411
3 482 483 484
3 485 486 483
3 487 488 454
3 489 490 491
3 492 493 418
3 494 495 496
3 496 497 465
3 498 499 500
3 501 502 503
3 504 505 506
3 419 507 491
3 489 508 509
3 510 511 512
3 513 413 415
3 514 515 516
3 438 517 518
3 519 438 518
3 520 521 522
3 453 523 524
3 525 526 527
3 528 529 530
3 501 378 531
3 441 532 439
3 533 534 535
3 536 449 511
3 438 437 537
3 538 539 540
3 541 445 447
3 542 504 543
3 410 412 468
3 468 488 544
3 530 545 546
3 503 502 547
3 548 549 550
3 551 552 553
3 547 502 554
3 428 555 556
3 557 558 559
3 560 561 550
3 523 453 452
3 562 416 422
3 563 483 564
3 565 566 567
3 568 569 570
3 571 572 573
3 474 379 381
3 474 381 472
3 574 575 478
3 474 441 379
3 474 473 576
3 577 450 578
3 579 500 499
3 532 441 580
3 581 582 583
3 584 585 586
3 584 587 467
3 462 459 588
3 543 528 542
3 589 572 571
3 590 591 592
3 593 594 595
3 596 560 415
3 548 597 549
3 598 554 599
3 600 601 602
3 603 604 605
3 606 607 608
3 606 609 610
3 459 458 611
3 607 449 608
3 612 578 613
3 614 615 616
3 617 554 502
3 618 619 550
3 620 438 537
3 621 622 623
3 624 608 625
3 543 609 529
3 497 496 599
3 517 620 626
3 627 628 629
3 630 631 557
3 632 633 634
3 627 629 381
3 488 635 454
3 513 415 549
3 459 636 637
3 531 378 638
3 473 639 640
3 641 642 643
3 644 437 532
3 645 537 437
3 646 451 491
3 440 379 441
3 409 647 457
3 527 540 525
3 482 484 486
3 595 594 648
3 649 645 644
3 650 432 651
3 576 580 441
3 652 593 653
3 654 639 616
3 655 656 566
3 651 632 650
3 516 590 514
3 485 657 656
3 658 638 586
3 659 407 457
3 616 552 614
3 660 661 662
3 435 663 436
3 664 600 665
3 558 557 666
3 667 668 669
3 670 671 570
3 672 657 564
3 673 568 671
3 628 579 674
3 599 435 434
3 580 593 532
3 592 569 568
3 675 413 533
3 489 676 490
3 677 678 575
3 660 602 479
3 679 605 680
3 422 416 418
3 681 508 682
3 422 424 600
3 497 554 463
3 683 684 464
3 479 661 660
3 562 422 664
3 486 685 482
3 573 461 410
3 573 410 468
3 472 686 687
3 574 677 575
3 528 530 464
3 629 688 689
3 608 624 606
3 632 651 633
3 629 689 690
3 597 691 549
3 684 496 465
3 692 678 561
3 599 495 435
3 594 693 694
3 654 641 695
3 696 591 516
3 461 697 481
3 698 534 699
3 667 454 456
3 514 590 515
3 694 457 648
3 700 522 701
3 702 601 507
3 506 578 610
3 491 682 508
3 672 567 566
3 564 567 672
3 631 666 557
3 688 674 499
3 552 693 652
3 703 704 682
3 705 485 655
3 706 491 490
3 463 554 504
3 692 596 707
3 489 491 508
3 430 705 604
3 615 614 642
3 708 576 640
3 551 408 407
3 432 431 651
3 449 536 608
3 511 608 536
3 703 682 491
3 552 581 583
3 587 459 611
3 709 637 636
3 710 506 711
3 623 559 558
3 428 712 711
3 673 520 592
3 713 601 702
3 521 673 714
3 413 675 414
3 424 601 600
3 709 378 715
3 716 645 425
3 717 585 555
3 718 538 493
3 604 705 605
3 716 620 537
3 557 559 630
3 677 574 719
3 565 680 720
3 434 446 721
3 446 434 436
3 559 623 722
3 648 594 694
3 456 469 668
3 580 643 593
3 580 708 723
3 724 718 725
3 726 490 727
3 492 418 417
3 728 492 729
3 730 443 442
3 598 434 721
3 731 442 732
3 725 733 729
3 630 734 669
3 735 646 736
3 423 540 527
3 718 724 538
3 582 581 407
3 737 738 669
3 522 521 739
3 740 526 741
3 552 742 614
3 743 691 597
3 560 549 415
3 719 618 550
3 660 665 600
3 499 498 744
3 645 649 425
3 598 599 434
3 745 573 572
3 481 411 461
3 617 531 658
3 421 732 419
3 606 450 607
3 668 469 746
3 467 466 584
3 746 666 747
3 491 706 420
3 445 541 698
3 609 624 529
3 545 530 529
3 652 653 742
3 712 710 711
3 737 429 428
3 599 496 495
3 551 409 408
3 684 683 494
3 748 698 699
3 496 684 494
3 749 598 750
3 651 433 605
3 712 430 710
3 751 499 752
3 609 606 624
3 599 554 497
3 753 726 676
3 554 617 658
3 542 463 504
3 578 606 610
3 676 489 753
3 446 445 721
3 426 699 534
3 543 504 610
3 754 755 756
3 586 587 584
3 487 466 544
3 672 566 656
3 720 566 565
3 757 702 758
3 723 708 695
3 640 576 473
3 639 687 690
3 603 605 433
3 744 752 499
3 688 629 759
3 720 605 655
3 693 582 659
3 598 721 750
3 584 466 585
3 760 717 555
3 380 379 440
3 419 491 420
3 586 717 658
3 700 633 522
3 726 421 706
3 681 509 508
3 721 445 748
3 743 517 691
3 493 492 728
3 443 752 744
3 718 733 725
3 633 761 522
3 756 743 758
3 659 582 407
3 505 762 711
3 538 724 539
3 583 582 693
3 414 675 763
3 439 438 519
3 764 427 765
3 669 487 667
3 426 547 598
3 766 734 621
3 473 472 639
3 470 469 456
3 652 594 593
3 626 620 767
3 488 412 481
3 745 697 768
3 450 577 510
3 576 708 580
3 690 616 639
3 554 658 504
3 769 770 440
3 586 585 717
3 474 576 441
3 505 504 658
3 771 602 601
3 757 713 702
3 651 761 633
3 627 380 770
3 688 499 751
3 516 591 590
3 769 755 476
3 506 710 578
3 633 700 634
3 578 570 772
3 714 773 774
3 714 701 739
3 698 748 445
3 451 775 703
3 587 589 776
3 573 468 776
3 647 588 459
3 673 592 568
3 777 589 458
3 456 778 470
3 485 656 655
3 635 481 697
3 589 587 611
3 548 713 757
3 754 756 758
3 564 657 563
3 779 740 780
3 775 704 703
3 648 715 377
3 715 637 709
3 494 683 546
3 603 433 432
3 645 437 644
3 774 701 714
3 502 531 617
3 432 650 603
3 426 749 699
3 459 587 636
3 381 380 627
3 748 699 750
3 683 530 546
3 532 437 439
3 428 711 762
3 451 703 491
3 781 780 523
3 452 451 646
3 501 531 502
3 760 762 505
3 690 381 629
3 739 701 522
3 535 698 541
3 475 477 770
3 416 562 417
3 572 697 745
3 691 513 549
3 663 447 436
3 526 740 782
3 766 621 783
3 559 622 784
3 446 436 447
3 621 623 685
3 414 763 415
3 452 782 779
3 463 465 497
3 539 724 725
3 631 746 747
3 597 758 743
3 480 618 574
3 555 762 760
3 526 525 741
3 597 757 758
3 785 503 425
3 554 598 547
3 464 684 465
3 746 631 668
3 487 669 556
3 707 575 678
3 526 782 527
3 677 561 678
3 430 604 710
3 433 651 431
3 731 421 726
3 716 767 620
3 485 705 766
3 771 601 713
3 537 645 716
3 486 485 685
3 517 626 513
3 677 719 561
3 744 444 443
3 507 419 786
3 787 507 424
3 729 741 539
3 771 480 602
3 555 428 762
3 662 661 788
3 505 717 760
3 438 620 517
3 634 774 773
3 494 541 663
3 495 663 435
3 533 765 534
3 590 592 515
3 586 636 587
3 774 700 701
3 763 707 596
3 789 665 660
3 776 468 467
3 788 478 575
3 775 451 453
3 507 786 702
3 625 608 790
3 574 478 480
3 413 513 765
3 638 636 586
3 558 666 623
3 615 642 641
3 755 754 786
3 654 616 615
3 551 462 409
3 553 460 791
3 789 660 662
3 666 631 747
3 681 682 704
3 563 657 485
3 533 413 765
3 648 377 644
3 457 637 715
3 424 507 601
3 440 770 380
3 729 492 417
3 764 765 513
3 685 766 783
3 685 485 766
3 733 718 792
3 791 460 462
3 646 491 507
3 579 628 477
3 634 700 774
3 442 793 732
3 483 563 485
3 419 498 500
3 423 493 538
3 777 460 553
3 632 603 650
3 605 679 761
3 605 761 651
3 634 603 632
3 525 540 539
3 423 538 540
3 730 752 443
3 670 604 603
3 635 455 454
3 688 751 689
3 751 752 730
3 480 479 602
3 743 756 518
3 619 771 550
3 548 771 713
3 597 548 757
3 489 509 753
3 562 664 794
3 466 487 556
3 472 381 686
3 487 454 667
3 686 381 690
3 769 519 755
3 528 463 542
3 665 789 562
3 795 671 670
3 697 777 635
3 520 673 521
3 635 777 455
3 716 427 767
3 767 427 764
3 452 646 735
3 469 471 746
3 646 507 787
3 719 574 618
3 619 618 480
3 796 714 673
3 686 690 687
3 472 687 639
3 796 671 795
3 569 592 591
3 425 503 547
3 579 477 476
3 426 598 749
3 439 769 440
3 739 521 714
3 602 660 600
3 580 723 643
3 550 561 719
3 613 578 772
3 696 612 591
3 642 614 742
3 429 705 430
3 477 628 770
3 429 766 705
3 484 483 486
3 674 688 759
3 605 720 680
3 742 653 642
3 716 425 427
3 625 790 624
3 779 782 740
3 452 797 781
3 789 662 788
3 608 546 790
3 785 501 798
3 679 680 565
3 578 612 577
3 778 471 470
3 642 653 643
3 696 516 515
3 577 612 696
3 541 447 663
3 494 663 495
3 528 464 463
3 543 529 528
3 683 464 530
3 560 550 549
3 771 548 550
3 596 692 561
3 545 529 624
3 531 638 658
3 541 763 675
3 423 422 493
3 450 606 578
3 448 450 510
3 664 665 794
3 707 678 692
3 722 622 559
3 714 796 773
3 794 665 562
3 787 424 736
3 603 773 670
3 610 609 543
3 556 669 738
3 624 790 546
3 769 475 770
3 708 640 695
3 512 511 449
3 607 450 449
3 641 654 615
3 755 519 518
3 770 628 627
3 695 640 654
3 439 519 769
3 640 639 654
3 673 671 796
3 691 517 513
3 555 585 466
3 555 466 556
3 693 594 652
3 429 737 734
3 776 571 573
3 761 679 565
3 773 603 634
3 768 697 461
3 622 799 784
3 652 742 552
3 577 511 510
3 721 748 750
3 699 749 750
3 783 621 685
3 482 685 623
3 457 715 648
3 523 452 781
3 779 800 797
3 377 715 378
3 624 546 545
3 638 378 709
3 513 626 764
3 444 744 793
3 773 795 670
3 773 796 795
3 515 577 696
3 792 718 493
3 444 793 442
3 729 733 728
3 619 480 771
3 611 458 589
3 767 764 626
3 725 729 539
3 378 501 376
3 730 689 751
3 462 551 553
3 552 777 553
3 420 706 421
3 570 604 670
3 417 562 729
3 772 570 569
3 675 533 535
3 801 622 621
3 544 466 468
3 488 468 412
3 572 777 697
3 419 732 498
3 672 656 657
3 460 777 458
3 589 777 572
3 707 763 541
3 731 732 421
3 479 478 661
3 661 478 788
3 675 535 541
3 490 726 706
3 588 409 462
3 595 644 532
3 427 534 765
3 547 426 425
3 801 621 734
3 595 648 644
3 653 593 643
3 595 532 593
3 780 775 524
3 376 501 785
3 505 711 506
3 784 734 630
3 569 613 772
3 786 500 755
3 500 786 419
3 428 556 737
3 622 722 623
3 553 791 462
3 674 579 499
3 430 712 428
3 570 671 568
3 500 476 755
3 754 702 786
3 797 452 779
3 779 780 800
3 705 655 605
3 613 591 612
3 727 676 726
3 423 527 736
3 637 457 647
3 613 569 591
3 636 638 709
3 659 457 693
3 423 736 424
3 720 655 566
3 736 646 787
3 630 559 784
3 734 737 669
3 376 785 649
3 490 676 727
3 641 723 695
3 427 426 534
3 698 535 534
3 570 710 604
3 781 800 780
3 560 596 561
3 512 449 448
3 763 596 415
3 552 551 581
3 581 551 407
3 544 488 487
3 723 641 643
3 506 610 504
3 539 741 525
3 647 409 588
3 637 647 459
3 573 768 461
3 649 785 425
3 769 476 475
3 476 500 579
3 737 556 738
3 512 448 510
3 527 782 452
3 488 481 635
3 669 668 630
3 644 377 376
3 768 573 745
3 778 456 455
3 376 649 644
3 418 493 422
3 710 570 578
3 600 664 422
3 798 503 785
3 493 728 792
3 571 776 589
3 735 527 452
3 735 736 527
3 799 622 801
3 630 668 631
3 792 728 733
3 754 758 702
3 693 457 694
3 628 759 629
3 429 734 766
3 467 587 776
3 498 793 744
3 793 498 732
3 658 717 505
3 797 800 781
3 775 453 524
3 667 456 668
3 799 734 784
3 801 734 799
3 780 524 523
3 501 503 798
3 755 518 756
3 628 674 759
3 518 517 743
3 693 552 583
3 366 455 777
3 314 780 740
3 116 746 471
3 181 777 552
3 170 515 592
3 201 520 522
3 54 778 455
3 154 494 546
3 337 666 746
3 197 565 567
3 283 575 707
3 136 707 541
3 371 704 775
3 71 753 509
3 325 731 726
3 141 567 564
3 298 482 623
3 110 546 608
3 339 623 666
3 315 740 741
3 370 775 780
3 324 741 729
3 389 789 788
3 153 577 515
3 302 690 689
3 89 608 511
3 77 541 494
3 239 592 520
3 196 761 565
3 357 509 681
3 65 552 616
3 123 564 483
3 363 522 761
3 353 442 731
3 327 689 730
3 391 562 789
3 172 511 577
3 42 730 442
3 350 726 753
3 251 681 704
3 224 788 575
3 121 483 482
3 372 471 778
3 301 616 690
3 93 729 562
3 455 366 54
3 780 314 370
3 746 116 337
3 777 181 366
3 515 170 153
3 520 201 239
3 778 54 372
3 494 154 77
3 666 337 339
3 565 197 196
3 575 283 224
3 707 136 283
3 704 371 251
3 753 71 350
3 731 325 353
3 567 141 197
3 482 298 121
3 546 110 154
3 623 339 298
3 740 315 314
3 775 370 371
3 741 324 315
3 789 389 391
3 577 153 172
3 690 302 301
3 608 89 110
3 541 77 136
3 592 239 170
3 761 196 363
3 509 357 71
3 552 65 181
3 564 123 141
3 522 363 201
3 442 353 42
3 689 327 302
3 562 391 93
3 511 172 89
3 730 42 327
3 726 350 325
3 681 251 357
3 788 224 389
3 483 121 123
3 471 372 116
3 616 301 65
3 729 93 324
