ply
format ascii 1.0
comment Created with the Wolfram Language : www.wolfram.com
element vertex 912
property float x
property float y
property float z
element face 1820
property list uint uint vertex_index
end_header
-8.93174 1.92044 0.936942
-9.02079 1.94938 0.95503
-9.26378 1.47749 1.07058
7.3037 -4.7724 0.438917
7.05086 -4.68683 0.411441
6.70133 -5.25477 0.348516
-2.08352 4.54101 0.0845405
-1.27402 5.02487 0.120759
-2.62939 5.64688 0.011782
9.75685 -0.457022 1.40941
9.83503 -0.337656 1.43092
9.59658 -0.160691 1.43105
-4.44587 -4.8713 0.987472
-5.12741 -5.07829 1.18787
-4.62821 -5.23598 1.08083
-4.23753 -4.83036 0.932361
-4.23104 -3.65521 0.797283
-4.75431 -4.53682 1.03659
6.9146 -3.68832 0.524215
5.95246 -4.20365 0.279403
6.64956 -4.56356 0.354541
9.33614 -3.60693 0.934624
9.26212 -3.76245 0.893365
9.41297 -3.76034 0.898253
-0.03356 0.986517 0.188413
0.555306 2.75508 0.218988
-0.627016 1.45447 0.148778
7.67008 -4.79031 0.518281
2.0459 -4.21355 -0.0408834
1.90211 -5.31753 0.0202826
2.81061 -4.53259 -0.0508936
-8.5021 -3.30773 1.7215
-8.41897 -3.19514 1.70265
-8.46773 -3.08272 1.69938
-2.14598 4.49893 0.08741
5.7737 -4.53655 0.230889
5.11475 -5.37466 0.142371
5.52727 -5.35713 0.181899
3.63892 -4.34532 0.0291277
4.06028 -5.01709 0.0427089
5.37703 -4.32808 0.198151
-8.69959 1.4312 0.934274
4.06235 -5.38414 0.0544785
-6.99617 -4.08032 1.53219
-7.10839 -3.72365 1.50964
-7.54317 -4.10463 1.66824
9.80203 -1.82382 1.22342
9.96972 -2.37283 1.15936
10.1434 -2.34402 1.16054
0.307274 0.898098 0.173796
1.36506 0.740382 0.225661
-3.04282 5.25323 0.0275089
-2.20762 -0.545043 0.214766
-1.0618 -0.788388 0.109236
-2.31402 -0.370349 0.231364
8.70812 1.69494 1.48288
9.08294 1.31423 1.51042
7.22584 3.39591 1.29694
-5.66185 0.79509 0.58624
-4.59115 -0.718824 0.545124
-4.81603 1.70222 0.399351
-1.98164 6.26097 0.0120985
-1.4295 6.22121 0.0595397
-6.93732 3.85587 0.449266
-7.94649 3.51519 0.605737
-7.84144 3.03547 0.63028
9.57919 -2.23789 1.1635
9.35744 -1.16316 1.27212
8.5174 -2.29908 1.0381
8.46951 0.585463 1.33724
9.36263 0.00413411 1.42806
9.16578 0.915467 1.48806
5.66051 -2.61723 0.466014
3.52769 4.88753 0.70398
2.79516 4.94684 0.559688
3.00118 3.98665 0.595592
2.83612 1.47325 0.47351
3.35952 2.49899 0.629723
2.69161 2.0997 0.460795
3.74647 5.10705 0.732499
3.66241 5.12958 0.716489
-1.5879 6.31106 0.0403332
10.1368 -2.64731 1.09574
10.0246 -2.86754 1.06406
7.02381 2.30674 1.24705
7.27856 2.96835 1.31768
6.84846 2.35237 1.23204
-5.86623 4.11838 0.309987
-6.08668 4.49493 0.297296
-6.28724 3.77321 0.398923
-6.50211 4.69411 0.319812
8.05489 1.1165 1.31356
7.68732 2.00873 1.34305
9.44338 -2.90007 1.06661
9.72936 -3.2685 0.998971
9.79418 -2.99162 1.0515
9.8976 -3.20867 1.00359
9.68135 0.0668619 1.45716
9.34729 -3.57765 0.937964
9.01294 -3.6695 0.894812
-8.79682 -2.8006 1.71333
-8.17664 -3.60866 1.70725
-7.94528 -3.83637 1.69246
-8.00916 -3.53159 1.67424
4.07189 4.68859 0.800318
9.72053 -3.42756 0.967282
9.63612 -3.46866 0.959744
5.84216 -2.12254 0.564131
5.32654 -1.22482 0.592545
6.59443 2.23984 1.1726
5.35988 0.916939 0.891959
7.1117 1.64324 1.22543
1.63465 4.09094 0.33958
2.06099 4.57227 0.399792
1.281 4.88088 0.293727
-5.61299 5.0925 0.199362
-5.48227 5.02286 0.198269
-5.4054 5.33497 0.138844
-8.58569 2.00735 0.860623
-8.7002 2.11243 0.858826
6.22497 -0.0217188 0.949544
10.0377 -1.25176 1.31947
9.70854 -0.649004 1.37164
-8.54214 -2.6738 1.65882
-7.53888 -2.54866 1.43906
4.83243 3.70316 0.964856
5.05331 3.8497 1.00036
4.48209 4.39048 0.888201
3.75739 4.48136 0.756982
6.90524 3.27984 1.27179
6.12537 2.73122 1.12943
-1.28384 -5.64339 0.360195
-1.00372 -5.38781 0.284429
-1.24694 -5.55253 0.350757
-6.27416 5.03257 0.262324
2.40451 5.42189 0.532051
2.41044 5.33047 0.516902
2.50445 5.36936 0.539447
-1.52625 3.90488 0.135443
-2.16875 3.85921 0.109735
-2.11542 3.47353 0.115473
-1.4846 6.36453 0.0572157
-1.05543 6.17877 0.0915505
0.515039 6.20079 0.276617
-5.33174 5.4636 0.131563
-5.09535 5.21183 0.13788
-5.76473 3.78623 0.336292
-4.3727 2.83914 0.275553
-4.72131 5.10407 0.111718
2.71192 -4.37895 -0.0329661
3.6792 4.09062 0.739231
3.50816 3.44475 0.695107
3.90657 3.86991 0.782717
1.95732 5.23489 0.414895
-5.21081 5.10235 0.153602
5.14749 3.32354 1.01471
4.43409 3.11993 0.890111
4.27227 2.61077 0.826969
8.90477 -3.69316 0.879472
8.8929 -3.82487 0.853445
8.99642 -3.81621 0.864951
-8.04419 3.67075 0.602471
-8.02149 3.60145 0.607826
5.61123 3.85989 1.0767
4.91927 4.8764 0.914558
5.33628 4.48097 1.00799
-8.86602 -1.95223 1.58909
-8.77326 -2.15546 1.60986
-8.69139 -1.96656 1.55634
5.75268 3.89948 1.10065
6.05105 4.12653 1.13343
5.84352 4.28525 1.09715
-5.97288 1.48806 0.562467
9.96289 -2.99498 1.04363
-7.91362 -3.51343 1.65893
4.62513 4.90987 0.872035
10.1678 -2.46408 1.13601
2.18819 4.65968 0.425855
3.69813 -3.83478 0.0575388
3.68014 -2.8534 0.164939
2.60913 -3.11267 0.058859
-5.47034 -1.48436 0.809162
-6.93182 -1.51675 1.13355
-5.59801 -2.55124 0.971188
-2.67753 6.1609 0.00729516
-2.54981 5.94435 -0.00957648
-2.49501 5.91222 -0.0114083
1.57486 5.91497 0.415037
1.16563 6.07156 0.361474
1.32731 5.93042 0.377335
6.08744 -0.917796 0.796561
5.58155 -0.922313 0.689272
-7.83015 2.39171 0.694803
-8.41854 2.69864 0.74846
8.90315 1.14044 1.47692
-4.9994 2.38566 0.380559
-6.75885 4.80756 0.342803
-7.12824 0.910742 0.780763
-6.42071 -0.818663 0.930857
-8.48836 2.39214 0.788122
-3.55688 4.37376 0.108572
5.3882 3.20464 1.05074
4.53497 1.93957 0.82789
-4.1854 -5.66116 1.01315
-6.53239 -3.14271 1.27951
-9.04623 0.747108 1.12661
-9.23896 0.320522 1.21751
-9.08653 0.282236 1.18951
-9.39467 0.43479 1.23925
4.44155 4.85354 0.85356
4.04042 5.10867 0.788299
-5.73191 -4.36175 1.24845
-6.05399 -5.09692 1.42381
4.86854 4.95633 0.896427
8.6876 1.42983 1.46411
8.90976 1.25796 1.48041
-2.11916 -5.98627 0.579209
-1.92354 -5.21326 0.409533
-2.72413 -5.31709 0.618199
-7.26416 2.06721 0.67889
-8.93948 2.01685 0.927389
-8.97827 2.12705 0.921119
2.03871 -0.729092 0.223558
1.89933 -2.34099 0.0926053
2.27305 -2.01922 0.112495
-0.822261 -4.35205 0.153693
-0.909321 -5.02758 0.231982
-0.789573 -4.4352 0.150981
-5.68394 5.16733 0.183324
-5.84634 5.14463 0.206791
2.90728 -5.06111 -0.0289605
-7.87504 -3.85129 1.68107
8.00582 -1.90083 1.02399
8.55336 -2.71242 0.989652
8.6791 -3.97677 0.789646
-9.14847 -2.25393 1.69224
-9.05143 -1.90306 1.61875
-5.78066 5.1135 0.203509
-8.18387 1.54615 0.8408
-9.33641 0.245213 1.25344
-9.21715 0.0194488 1.26818
-9.14509 0.0626648 1.23843
-4.42676 -1.99611 0.642545
-3.23015 -0.927265 0.337361
-8.41609 2.8085 0.730653
6.03888 -4.49501 0.261517
6.5533 -5.23734 0.31885
4.83301 4.96558 0.895972
1.12088 5.3495 0.303796
1.34194 5.68316 0.354059
4.55088 -0.574805 0.542978
4.93145 -0.0267434 0.689197
4.36211 -0.230404 0.554457
7.06145 3.15385 1.28883
-8.70487 2.72892 0.789196
9.95535 -2.53419 1.13959
-4.41715 -3.57164 0.819244
-4.13685 -3.10716 0.708712
-0.871082 0.804148 0.171752
-1.45465 2.36925 0.124566
3.24297 0.237483 0.425292
2.7129 0.579267 0.385273
2.07874 0.0752027 0.250026
8.29471 -3.96862 0.732909
7.47658 -3.8813 0.598642
0.482494 3.16052 0.228068
0.438037 4.58167 0.211645
-0.630654 3.28656 0.181629
9.20243 -3.83169 0.879393
9.53385 -0.102931 1.43247
-4.85914 -3.88054 0.961739
-5.94487 -3.70164 1.20476
-0.993934 -5.1506 0.272627
-2.8617 2.11113 0.195975
-3.71596 3.16659 0.206783
2.13511 -0.291034 0.226146
8.48307 -4.42119 0.704398
2.38441 -5.55378 0.0354755
3.24614 -4.55258 -0.0191333
-7.50098 -0.477862 1.04877
-8.02677 0.0169899 1.0384
-8.33353 -1.01643 1.29314
1.00304 -5.71055 0.107962
-0.31334 -5.96749 0.261197
-0.303864 -6.00942 0.276607
-1.10817 4.64712 0.154699
3.74866 -2.5541 0.20401
3.98054 3.1452 0.79332
2.29636 4.04574 0.456431
2.06074 2.83106 0.393412
-7.3926 -0.951334 1.11864
-9.49252 -0.5224 1.40881
-9.54839 -0.990425 1.52974
-9.42681 -0.844019 1.46399
3.92369 1.53232 0.659318
-7.85094 -3.91278 1.68409
-7.81884 -3.92426 1.67976
7.74483 2.50222 1.38744
7.36902 2.09642 1.28313
0.483109 5.65239 0.241793
2.5494 -0.747458 0.247788
-3.71534 5.83867 0.0106134
-3.41091 5.88948 -0.010057
-3.80689 5.78753 0.0142576
-7.05044 3.98205 0.45785
-8.67529 2.64553 0.795991
-8.62884 2.45969 0.809666
2.61348 5.48812 0.562125
2.56323 5.43994 0.553372
-2.35487 6.12537 0.00454057
3.36936 5.22345 0.672683
3.54917 5.17925 0.699805
-7.88544 3.86714 0.570814
-0.412581 0.00371121 0.108578
5.53583 0.00291409 0.809271
5.63928 -0.874758 0.711655
-5.97225 5.1245 0.224064
-6.18382 5.04821 0.247563
7.99485 -0.586285 1.16831
8.50023 -0.14493 1.26531
-4.58883 5.67519 0.048133
-7.42562 -4.3649 1.66329
4.61369 -1.04779 0.487915
4.94308 -0.820332 0.584404
5.46717 4.05677 1.05458
-2.47981 5.9775 -0.00164073
-2.57012 6.07793 -0.0171948
6.65586 -2.94471 0.608463
6.00081 -2.05262 0.6146
-7.40942 -0.241125 0.991861
-0.304039 -5.90916 0.242373
-0.431441 -1.07707 0.0850094
8.14957 -4.55563 0.628017
7.79008 -4.79745 0.543013
3.13589 5.46097 0.64411
7.8401 -4.60909 0.569178
7.59056 -4.6447 0.507246
1.95789 5.6489 0.448272
1.14277 -2.37639 0.0654047
0.673749 -3.63038 0.0461614
3.08922 -1.23789 0.261787
2.87512 -0.714626 0.293072
2.32612 -5.75279 0.0528321
3.93997 -5.52772 0.0419137
2.54084 -5.78915 0.068019
2.77999 -5.47213 0.0142418
9.83285 -0.529428 1.40424
-8.74311 2.31514 0.843303
5.12962 -5.40303 0.140303
-8.8519 -2.5953 1.6878
1.58275 5.84185 0.399404
2.09428 2.17251 0.399333
1.9937 5.30812 0.440586
-0.402523 -5.24771 0.18068
8.94137 1.02749 1.46782
-0.184968 5.75093 0.182287
-3.83579 -2.4753 0.577555
-0.969632 -4.32561 0.186579
-2.00844 -1.79238 0.229546
-5.32201 5.23317 0.15414
5.29179 -0.532324 0.693463
-2.9241 6.12432 0.00396616
-9.33461 1.31028 1.11984
-9.16731 1.12811 1.09831
-4.57999 5.14359 0.0916462
-2.78482 3.49799 0.147118
-8.88778 1.076 1.02259
3.01765 -3.98612 -0.011295
-9.37924 -1.24407 1.54026
-8.78772 2.31391 0.857182
5.068 4.93553 0.928384
-9.37077 -0.712868 1.42909
-9.18875 -0.757086 1.4047
-1.73932 -5.94106 0.488278
-3.24469 -5.96178 0.81736
-1.68083 -1.88381 0.184445
-3.17268 -5.016 0.688516
-3.64379 -5.91684 0.91854
-4.10365 -5.83998 1.00502
-0.0551422 -4.62862 0.0812052
0.511209 -4.95656 0.0502989
2.99066 5.38561 0.620827
2.61856 5.40828 0.562034
3.27195 -1.01605 0.304394
-3.35038 3.29845 0.181252
3.81708 0.493313 0.555748
-9.45103 -1.23865 1.55162
-9.33082 -0.923003 1.45055
-6.58602 -3.74121 1.37844
-0.995216 2.40824 0.158251
-9.55932 -0.402622 1.41469
7.37258 -4.75182 0.453961
6.69304 -3.47439 0.518659
9.05645 -3.97259 0.840741
-3.26459 5.81908 0.0133291
6.15596 3.93074 1.16378
1.4091 3.05599 0.318299
-3.73462 -5.90112 0.932887
-6.52825 -4.58425 1.48605
-6.78928 -4.75697 1.56132
-6.7775 -5.07983 1.57323
-9.11711 0.0367145 1.24089
-7.02754 -4.99725 1.60623
-7.31245 -4.52619 1.6505
3.7518 2.72987 0.723447
-7.75484 -4.08258 1.69631
4.94823 1.391 0.862001
-4.43047 5.53082 0.0685668
-3.84274 5.78333 0.0150698
-5.85076 -5.59571 1.3907
-4.94964 -5.44914 1.1676
8.81573 -3.96431 0.815123
-5.75218 -2.99352 1.06057
-8.34881 0.567124 0.977037
8.7805 -4.08122 0.796055
-7.82268 -4.06684 1.70283
3.91415 3.06924 0.771763
5.55999 0.208921 0.8464
4.81511 0.904334 0.780636
-4.88045 -5.72115 1.18461
1.01894 4.61623 0.246413
1.66203 -6.00878 0.135339
1.00156 4.75297 0.251931
1.44986 -5.55939 0.0643059
-7.98895 0.570798 0.937003
-3.13315 -5.99037 0.803444
-3.28165 -5.99396 0.846607
-3.24819 -6.03391 0.83649
-6.46039 -3.60369 1.32846
-3.35449 -5.41117 0.782719
-3.53571 -5.85165 0.876125
-3.13454 -5.49913 0.741856
-9.63148 -1.61001 1.65585
-9.40275 -1.94197 1.68792
-9.02247 -2.29061 1.66721
-9.48877 -1.4499 1.61439
-1.92669 6.3689 -1.45753
-1.29891 6.20482 -1.40918
-1.16235 4.95899 -1.34814
-0.764048 -3.07332 0.136251
6.95726 -4.64119 0.395006
0.349242 -2.64419 0.053221
3.26671 2.59153 0.609756
6.11322 3.29336 1.15077
2.59853 5.26902 0.54864
-6.31882 -3.40678 1.262
9.72894 -0.0521063 1.44998
8.2931 -4.43101 0.67077
8.02414 -4.50086 0.611601
-1.3536 -5.90822 0.421067
-1.33652 -5.81703 0.392302
-0.187187 -5.31189 0.161095
-2.64838 3.72534 0.124715
3.23844 5.17102 0.65519
4.19269 4.71116 0.821072
-0.669996 -5.65686 0.270111
-7.59713 4.23021 0.498741
1.39684 3.12608 0.314278
-4.25093 5.42937 0.0623448
-2.58038 5.5757 -1.46029
-2.02081 4.4805 -1.38749
-2.15239 4.42065 -1.3851
-9.25126 1.73851 -0.491089
-9.66991 1.29162 -0.334755
-9.34841 1.76444 -0.470779
9.35042 -3.35929 -0.518971
9.36767 -3.42736 -0.537553
9.35975 -3.51345 -0.556784
9.87041 -1.63791 -0.237824
10.0484 -2.08792 -0.288543
9.97712 -2.19239 -0.304146
9.90187 -0.243071 -0.042364
9.73678 0.0152776 -0.0262885
9.93932 -0.160557 -0.0292921
7.55693 -4.72809 -1.01311
6.96175 -5.32177 -1.10137
7.29625 -4.57062 -1.03795
-4.59432 -4.99157 -0.489322
-5.10262 -4.70495 -0.386392
-4.55181 -3.84608 -0.629302
2.03474 -4.15995 -1.51447
2.84391 -4.49162 -1.52456
1.85316 -5.47068 -1.44553
7.17771 -3.4641 -0.9093
6.88415 -4.43322 -1.09544
6.16417 -4.02677 -1.16917
-7.33936 -4.25005 0.10816
-7.81351 -4.29238 0.230836
-7.43097 -3.93052 0.0856953
-8.65583 -3.40956 0.258471
-8.69804 -3.23866 0.251236
-8.63899 -3.34379 0.252146
-4.80345 -5.02904 -0.4344
-4.96608 -5.39152 -0.3461
-5.48411 -5.21601 -0.236304
7.97652 -4.79446 -0.924128
-0.0214052 1.02995 -1.2855
-0.570629 1.44596 -1.32473
0.653929 2.77958 -1.25211
-9.02085 1.26147 -0.494869
-2.36123 -0.543131 -1.25182
-2.43907 -0.365024 -1.23792
-1.17465 -0.766265 -1.36088
5.27708 -5.35475 -1.32314
4.1676 -5.44523 -1.4151
4.18536 -5.01064 -1.42657
3.77959 -4.27905 -1.43726
5.53813 -4.21789 -1.26348
1.49841 0.813525 -1.24108
0.325721 0.959609 -1.29941
9.51561 -2.65495 -0.385682
9.75086 -2.70843 -0.395007
9.70592 -2.98428 -0.447796
8.81027 1.66413 0.0121397
7.24279 3.17168 -0.160415
9.19202 1.34316 0.0401327
-1.56241 -6.10994 -1.03516
-0.902009 -5.91339 -1.16336
-1.55708 -6.25788 -0.99696
-4.8475 4.98956 -1.35301
-5.91303 3.6418 -1.12371
-5.36348 4.98736 -1.30857
5.91124 -2.42819 -0.974771
3.06536 1.55458 -0.980896
2.94526 2.13745 -0.991342
3.66503 2.56136 -0.811542
7.34126 1.73542 -0.228278
6.48358 0.148745 -0.492167
5.62387 1.05837 -0.551916
6.82952 2.37558 -0.276809
-1.45499 3.89163 -1.33738
-2.13983 3.4351 -1.35843
-2.16098 3.81774 -1.36427
1.48643 4.94227 -1.16521
2.21152 5.38205 -1.03016
2.30776 4.59035 -1.05391
-5.50519 5.45323 -1.33277
-5.20258 5.0876 -1.32757
-5.50993 5.1389 -1.31893
-4.50227 2.73081 -1.18935
4.03269 5.17669 -0.712386
3.77911 4.86701 -0.74889
3.93643 5.21297 -0.730032
8.29927 1.2508 -0.134439
7.94556 2.11277 -0.105037
3.30014 3.99997 -0.84833
3.07299 5.00567 -0.887314
8.69608 0.743043 -0.111309
9.33066 1.05004 0.028897
9.54149 0.167973 -0.0264594
4.32467 4.64063 -0.65167
5.61213 -1.01191 -0.83839
6.17843 -1.93699 -0.859584
-9.07454 -3.01705 0.281374
2.63456 5.55374 -0.918521
2.74826 5.52003 -0.907039
2.67568 5.54912 -0.917081
9.5114 -0.987335 -0.183851
9.86982 -0.43133 -0.0778635
10.16 -1.04769 -0.135816
5.94309 -4.48767 -1.23314
5.74853 -5.69764 -1.23569
7.24098 2.43608 -0.20573
7.06354 2.46885 -0.222136
7.49584 3.01124 -0.140198
9.68339 -3.12314 -0.475082
9.62667 -3.17023 -0.484319
-3.06266 5.16575 -1.44437
9.68361 -2.06076 -0.296698
8.68739 -2.11913 -0.415583
-8.41485 -3.77111 0.261104
-8.21973 -3.66394 0.220761
-8.19148 -3.98832 0.246511
-5.62513 4.8532 -1.25956
-6.03106 3.98193 -1.14901
-6.12691 4.99657 -1.23682
-6.22613 4.34233 -1.16275
-6.37595 4.98269 -1.21301
5.09292 3.69547 -0.486541
4.71807 4.32331 -0.565851
5.27581 3.81353 -0.45692
-1.54061 -5.80142 -1.08326
-1.52262 -5.63356 -1.09558
-1.28172 -5.48664 -1.16036
2.77404 -4.25915 -1.50138
-4.06823 -6.16109 -0.479765
-3.85946 -6.10472 -0.540069
-3.97482 -6.20809 -0.488605
2.27676 -0.211099 -1.23946
2.09093 -0.658962 -1.24845
5.01787 4.77916 -0.555076
5.11781 4.74879 -0.54104
4.81611 4.78391 -0.584718
5.69298 4.01414 -0.402011
5.56123 4.38374 -0.446111
5.95363 4.07182 -0.357767
7.95273 2.53853 -0.0719904
-2.51687 5.9858 -1.48323
-2.35509 6.20658 -1.46783
3.97648 4.10377 -0.705041
4.19598 3.87367 -0.663207
3.82803 3.48739 -0.743759
5.60928 3.25515 -0.406321
6.35583 2.8152 -0.324637
4.79846 2.04865 -0.618878
-8.02046 2.22568 -0.758016
-8.72641 2.22721 -0.657769
-8.63942 2.52242 -0.698822
-6.67701 4.55672 -1.13793
-6.44633 4.87878 -1.1941
-4.9919 1.6098 -1.06181
-5.88068 0.643177 -0.864105
-6.1596 1.35944 -0.894605
9.09187 -3.43377 -0.560032
9.12762 -3.54397 -0.578356
9.07629 -3.5549 -0.584591
-8.22586 3.51032 -0.852081
-8.13932 3.39147 -0.850963
-8.2368 3.45614 -0.843723
9.7696 0.179725 -0.0104724
9.86438 -2.70507 -0.39884
9.80619 -2.91082 -0.437729
-1.32809 6.36922 -1.40905
0.682436 6.23307 -1.1881
-0.912497 6.19238 -1.37605
-9.0026 1.91304 -0.570601
-8.82115 1.81624 -0.582465
-8.79611 -2.89886 0.223793
-7.83544 -2.77899 0.0130597
1.84035 4.08581 -1.1206
-5.70218 4.83061 -1.24906
7.10867 3.30343 -0.188525
-2.64004 6.27884 -1.46211
-2.64161 6.49705 -1.42918
-2.50847 6.1408 -1.4669
9.35495 -3.35133 -0.519152
9.15226 -3.43587 -0.554489
-6.44892 3.62346 -1.05912
9.9438 -2.58163 -0.380308
3.83015 -3.70963 -1.4058
2.68475 -2.98134 -1.40794
3.83638 -2.68789 -1.292
4.03353 4.45978 -0.691379
4.64297 4.77556 -0.605143
4.2699 5.0908 -0.668233
-5.77819 -1.65398 -0.622941
-7.2371 -1.73134 -0.293065
-6.6761 -1.02999 -0.506008
8.23465 -1.70986 -0.420186
8.75924 -2.49567 -0.454336
6.23455 -4.40965 -1.19756
6.76873 -5.26275 -1.13971
-8.17022 -3.66839 0.215109
-8.15196 -4.01652 0.242158
-5.92688 -2.72545 -0.455682
9.91389 -2.3197 -0.32463
9.95155 -2.17365 -0.293451
-6.88781 -3.34331 -0.137494
-9.39157 0.548079 -0.293106
-9.56928 0.125985 -0.206401
-9.83694 0.260637 -0.156648
-9.38655 0.0564708 -0.236489
-4.53277 -5.81697 -0.411465
9.11504 1.25626 0.0222202
2.94128 -5.15674 -1.50007
6.36828 -0.703497 -0.635106
5.87652 -0.67742 -0.734625
1.86877 6.18569 -1.0044
1.55969 6.11341 -1.0673
1.38424 6.18395 -1.0925
5.98372 3.88723 -0.355692
6.15378 3.92478 -0.323694
2.47261 4.71266 -1.02009
8.91965 -3.75972 -0.648926
-4.71476 -2.14967 -0.795489
-4.85417 -0.857389 -0.899205
-3.43785 -1.00959 -1.12022
-7.10813 3.72503 -1.00956
-8.01504 2.88139 -0.825944
9.90524 -2.28386 -0.312753
-9.14842 -2.22882 0.168457
-8.98201 -2.24389 0.137503
-9.03538 -2.39016 0.177837
5.82725 3.85822 -0.381998
5.37567 3.35381 -0.441825
4.56137 2.70633 -0.615861
4.70923 3.1615 -0.558004
-1.48154 6.46189 -1.42268
2.35443 -1.90115 -1.35512
1.91475 -2.25363 -1.37933
-7.42417 1.91122 -0.778687
-6.08697 -4.55466 -0.169716
-6.40777 -5.23854 -0.000704324
-9.39322 -2.46416 0.253368
-9.34717 -2.17216 0.199384
-5.91474 4.88996 -1.24788
-6.02938 5.03327 -1.25217
-5.80371 4.90278 -1.26241
-8.38214 1.38172 -0.611135
-8.62816 2.64973 -0.719963
-9.29686 1.9435 -0.506912
-9.27293 1.83418 -0.497358
9.11824 1.31906 0.021889
8.91116 1.54312 0.0109577
5.08622 4.89817 -0.560865
-1.2319 -4.5624 -1.24717
-1.08231 -4.57334 -1.28766
-1.17816 -5.21967 -1.20513
-2.53248 6.11985 -1.47084
8.53768 -3.75024 -0.705054
6.31378 -1.85207 -0.812387
3.3531 -4.50103 -1.48895
-5.16916 2.27093 -1.07974
-9.68352 0.00137381 -0.158834
-9.44168 -0.274718 -0.166085
-9.52837 -0.290302 -0.13954
-8.06901 -4.16503 0.24661
-8.15646 -4.13732 0.259062
-7.64265 -1.21092 -0.311237
0.91375 -6.0263 -1.32967
-0.539021 -6.49967 -1.09409
-0.488385 -6.45536 -1.11931
-4.72045 -3.76109 -0.611344
-4.44608 -3.27106 -0.72376
7.74469 -3.67095 -0.836047
2.33322 -5.75971 -1.42378
0.595421 3.16598 -1.2422
-0.559151 3.29279 -1.29123
0.520317 4.59468 -1.26061
-0.908684 0.810519 -1.30236
-1.42664 2.35594 -1.34971
4.79824 -0.384008 -0.898159
4.60872 -0.0541698 -0.888661
5.21147 0.16357 -0.746016
1.31139 5.44581 -1.15528
1.57446 5.81187 -1.0964
3.45231 0.389344 -1.02646
2.2665 0.208624 -1.20648
2.92201 0.72376 -1.06726
7.26018 3.18049 -0.172084
-8.94109 2.55094 -0.655446
8.6884 -4.21887 -0.74176
0.641846 5.72504 -1.22244
-0.193863 -4.69743 -1.38525
-0.915757 -3.10302 -1.33023
-8.04948 -4.22041 0.253886
-7.94484 -4.22035 0.240494
-7.67038 -4.43 0.210593
4.30822 3.20482 -0.643182
-2.94782 2.05153 -1.27491
-10.0801 -0.716693 0.0703593
-9.79696 -1.10459 0.0605839
-9.96546 -1.28355 0.146054
-7.73614 -0.743592 -0.38251
-8.599 -1.29478 -0.130421
-8.25503 -0.254523 -0.392914
7.62489 2.18385 -0.166474
3.91289 -2.40899 -1.25422
-7.61994 -0.480529 -0.447872
2.57415 4.03889 -0.991758
2.27861 2.84668 -1.06493
-1.01852 4.61351 -1.3168
9.27441 -3.54809 -0.565894
-7.24197 3.8615 -0.999287
-8.05337 3.73925 -0.888606
8.10935 -4.77361 -0.896418
8.4339 -4.44114 -0.814382
5.28573 -5.49298 -1.32326
2.3484 -6.32314 -1.30683
4.0489 -5.97002 -1.36057
-6.03673 -5.40027 -0.0590212
-5.28556 -5.58603 -0.261693
-9.2135 -2.89111 0.289158
4.20827 1.65622 -0.782254
4.8491 -0.859667 -0.955573
5.21748 -0.610842 -0.849222
6.93077 -2.70439 -0.820221
8.20055 -0.437208 -0.284254
8.70065 0.0112762 -0.187234
3.58464 5.22493 -0.786123
3.82035 5.28286 -0.745946
5.81837 0.206433 -0.623635
5.9364 -0.642655 -0.713938
-8.88385 2.31646 -0.635644
-8.94324 2.47754 -0.644303
2.847 5.53651 -0.89307
2.77377 5.51413 -0.904241
-9.06553 2.16505 -0.587775
2.77849 -5.67281 -1.44665
2.54135 -6.1143 -1.37029
2.68372 -0.642555 -1.21694
-0.400904 0.0703955 -1.36447
-3.75627 5.85431 -1.46334
-3.88815 5.85646 -1.45649
-3.52365 6.2249 -1.44158
-6.30913 -3.89961 -0.210365
-5.18595 -4.09115 -0.460691
9.66035 0.0594373 -0.0277031
-3.80661 3.07956 -1.26246
-2.18667 -5.39267 -1.03027
-1.24643 -5.32793 -1.16934
8.12009 -4.45825 -0.870725
7.89727 -4.51476 -0.929247
2.23055 5.74617 -0.99764
3.38103 5.55581 -0.806881
1.18171 -2.32211 -1.40769
0.625646 -3.61416 -1.42757
-4.72714 5.83356 -1.41141
9.95914 -0.311786 -0.048738
-0.456524 -1.06166 -1.3893
-3.61876 4.2577 -1.36016
3.24737 -1.09488 -1.19732
3.05183 -0.577388 -1.16446
-0.558446 -6.23734 -1.17256
-2.95206 6.18019 -1.46932
-7.32293 0.729405 -0.669643
2.26333 5.51071 -0.994936
-4.10622 -2.60539 -0.866193
-2.20173 -1.85555 -1.23097
-1.26485 -4.43988 -1.25365
-2.84831 3.41456 -1.32376
-4.7007 5.04999 -1.37503
1.82953 6.05302 -1.03899
9.12975 1.20066 0.0155848
-0.0581572 5.75389 -1.28685
2.27055 2.19595 -1.06451
-0.612843 -5.41115 -1.26967
-5.44435 5.03294 -1.30168
5.57829 -0.32261 -0.737762
-9.58731 1.09427 -0.316805
-9.54881 0.949117 -0.314799
3.09747 -3.89738 -1.48106
-9.67267 -0.951546 0.00558845
-9.42546 -1.03473 -0.024053
-9.65637 -1.56302 0.127488
-3.56247 -6.49047 -0.522032
-4.4538 -6.19676 -0.382268
5.19252 4.69553 -0.521223
-9.26386 0.865989 -0.387701
-9.12677 2.14864 -0.568368
-2.00044 -6.36419 -0.899973
-3.06188 -5.51228 -0.803874
-3.50904 -5.16658 -0.739298
3.2303 5.44302 -0.833044
2.8576 5.46739 -0.891868
-3.41758 3.21818 -1.28963
0.415786 -5.05942 -1.41762
-9.61855 -1.21181 0.0334132
-9.80213 -1.57236 0.158838
4.06399 0.647033 -0.88989
-1.83353 -1.92876 -1.28155
3.46056 -0.858081 -1.14954
5.21232 1.51335 -0.583597
-6.94787 -3.9404 -0.0371388
-9.39126 -0.276208 -0.173813
7.64093 -4.61148 -0.989217
9.13226 -3.64238 -0.594419
-9.96236 -0.628711 0.0143623
6.9622 -3.23507 -0.911288
-3.27013 5.78178 -1.4608
-0.917829 2.43258 -1.31412
1.57786 3.02944 -1.14638
6.33307 3.85989 -0.298433
-2.42616 -6.31899 -0.824184
-6.87432 -4.76532 0.0641083
-6.93475 -4.9087 0.117056
-7.11112 -4.92777 0.132439
-8.619 0.341943 -0.45501
-4.5327 5.45069 -1.40031
-3.89739 5.72345 -1.45731
4.06264 2.80088 -0.716276
-7.12962 -4.74825 0.156387
-7.59344 -4.62934 0.206592
8.9829 -3.87871 -0.650489
9.03194 -3.74082 -0.626325
-8.17134 0.353949 -0.510124
-6.10395 -3.17497 -0.359919
1.60717 -6.28079 -1.31292
1.39206 -5.76194 -1.39518
-5.23716 -6.02354 -0.213882
-6.97691 4.75687 -1.11471
4.2472 3.14751 -0.662606
5.09652 1.06705 -0.657696
5.84713 0.408106 -0.586199
1.17422 4.63655 -1.21985
1.14652 4.82518 -1.21376
-3.70159 -5.58088 -0.640371
-9.69029 -1.71452 0.186127
-9.88787 -1.75311 0.227583
-6.82653 -3.80157 -0.0861956
-3.47662 -5.68501 -0.680429
-3.47214 -6.211 -0.614609
-3.59229 -6.23802 -0.582806
-3.62744 -6.15253 -0.578087
-9.47802 -2.10384 0.224161
-9.4075 -2.56273 0.270005
8.27906 -4.32539 -0.830167
8.55106 -4.24237 -0.768792
-0.351898 -5.4822 -1.29435
7.22325 -4.53982 -1.05187
-6.68783 -3.60647 -0.151653
2.8541 5.37929 -0.899459
6.33269 3.32126 -0.307147
9.82394 0.0772129 -0.0158686
-7.77132 4.08569 -0.958392
4.43515 4.65726 -0.632466
0.305313 -2.6423 -1.42073
3.57949 2.64129 -0.830437
-2.69074 3.65564 -1.34763
1.55483 3.1181 -1.15182
3.47447 5.197 -0.800172
-4.32023 5.33653 -1.4077
3 0 1 2
3 3 4 5
3 6 7 8
3 9 10 11
3 12 13 14
3 15 16 17
3 18 19 20
3 21 22 23
3 24 25 26
3 5 27 3
3 28 29 30
3 31 32 33
3 8 34 6
3 35 36 37
3 38 39 40
3 2 41 0
3 36 39 42
3 43 44 45
3 46 47 48
3 25 49 50
3 34 8 51
3 52 53 54
3 55 56 57
3 58 59 60
3 61 7 62
3 63 64 65
3 66 67 68
3 69 70 71
3 19 72 40
3 73 74 75
3 76 77 78
3 79 80 73
3 81 61 62
3 82 83 48
3 84 85 86
3 8 7 61
3 87 88 89
3 88 90 89
3 91 55 92
3 93 94 95
3 95 94 96
3 97 71 70
3 98 93 99
3 100 31 33
3 101 102 103
3 104 79 73
3 105 94 106
3 72 107 108
3 109 110 111
3 112 113 114
3 115 116 117
3 0 118 119
3 111 110 120
3 67 121 122
3 123 33 124
3 125 126 127
3 127 104 128
3 86 129 130
3 131 132 133
3 90 88 134
3 135 136 137
3 138 139 140
3 141 142 143
3 144 117 145
3 146 147 148
3 149 28 30
3 150 151 152
3 114 113 153
3 116 87 154
3 155 156 157
3 158 159 160
3 161 162 64
3 126 155 163
3 164 127 165
3 166 167 168
3 169 170 171
3 60 172 58
3 173 95 96
3 103 102 174
3 175 127 164
3 83 173 96
3 48 176 82
3 127 152 125
3 75 74 177
3 178 179 180
3 181 182 183
3 184 185 186
3 187 188 189
3 190 191 108
3 192 65 193
3 69 194 91
3 89 195 146
3 196 90 134
3 197 198 58
3 192 193 199
3 200 34 51
3 201 202 130
3 128 152 127
3 14 203 15
3 182 204 183
3 205 206 207
3 205 208 206
3 209 175 210
3 211 212 13
3 175 213 210
3 56 214 215
3 32 101 103
3 84 109 111
3 216 217 218
3 63 219 89
3 48 47 176
3 1 220 221
3 222 223 224
3 225 226 227
3 228 117 229
3 230 30 29
3 102 231 174
3 181 198 182
3 232 233 68
3 158 234 159
3 235 166 236
3 237 228 229
3 118 238 192
3 239 240 241
3 147 195 60
3 242 243 59
3 148 154 146
3 64 244 65
3 245 35 246
3 247 175 164
3 239 241 207
3 248 249 188
3 250 251 252
3 86 253 129
3 244 254 193
3 66 255 47
3 256 16 257
3 152 156 125
3 155 125 156
3 258 26 259
3 260 261 262
3 263 233 264
3 265 266 267
3 99 160 268
3 70 122 269
3 211 270 271
3 217 133 272
3 273 274 147
3 158 160 99
3 50 222 275
3 276 234 263
3 46 48 121
3 248 114 153
3 277 230 29
3 149 30 278
3 279 280 281
3 282 283 284
3 6 138 285
3 179 72 286
3 259 140 273
3 273 258 259
3 151 287 152
3 59 198 181
3 288 289 75
3 224 223 180
3 54 273 60
3 124 182 290
3 204 182 124
3 291 292 293
3 77 76 294
3 168 167 123
3 295 102 101
3 111 91 92
3 296 44 231
3 83 255 95
3 297 84 298
3 255 66 93
3 24 49 25
3 188 143 299
3 300 275 222
3 301 302 303
3 304 64 63
3 193 305 306
3 307 135 308
3 309 186 185
3 310 73 311
3 64 312 161
3 53 313 258
3 84 111 298
3 304 312 64
3 314 315 120
3 316 317 88
3 318 319 69
3 145 148 320
3 55 57 297
3 43 45 321
3 256 257 183
3 322 108 323
3 324 171 165
3 8 309 185
3 67 318 232
3 184 325 326
3 21 23 98
3 327 232 328
3 158 263 234
3 318 67 319
3 328 190 108
3 329 280 279
3 200 147 274
3 330 283 282
3 331 222 313
3 276 332 333
3 22 268 23
3 232 68 67
3 334 210 213
3 335 336 333
3 290 281 124
3 337 307 187
3 204 124 44
3 338 339 223
3 340 341 300
3 12 17 13
3 237 229 316
3 124 168 123
3 342 37 343
3 277 344 345
3 346 121 10
3 100 33 123
3 29 342 277
3 347 306 305
3 199 193 306
3 42 348 36
3 123 167 349
3 124 33 32
3 194 214 91
3 350 249 337
3 25 50 351
3 327 264 233
3 337 352 135
3 95 255 93
3 145 320 144
3 353 227 226
3 69 71 354
3 285 355 7
3 356 357 358
3 154 359 116
3 83 95 173
3 251 323 360
3 118 41 238
3 47 255 176
3 191 360 323
3 117 116 359
3 39 38 278
3 361 326 302
3 46 66 47
3 362 363 41
3 309 326 325
3 364 148 200
3 273 140 365
3 320 302 326
3 72 327 328
3 366 41 363
3 180 367 178
3 247 164 213
3 368 236 166
3 119 347 369
3 206 208 239
3 342 344 277
3 165 370 164
3 371 372 240
3 373 374 284
3 375 53 358
3 218 217 376
3 374 377 378
3 379 380 339
3 381 307 382
3 354 56 194
3 252 260 383
3 145 154 148
3 384 200 274
3 299 248 188
3 385 76 261
3 292 386 387
3 386 368 387
3 44 43 388
3 25 389 26
3 313 24 258
3 296 45 44
3 143 81 141
3 371 240 390
3 3 391 4
3 362 41 2
3 309 8 61
3 325 186 309
3 194 215 214
3 19 392 72
3 91 214 55
3 4 391 264
3 305 369 347
3 85 84 297
3 27 336 391
3 86 109 84
3 55 214 56
3 305 254 369
3 319 67 70
3 335 333 332
3 119 118 199
3 103 174 32
3 182 198 290
3 31 101 32
3 23 393 276
3 56 354 71
3 302 394 361
3 259 389 267
3 365 384 273
3 8 185 361
3 119 221 220
3 198 279 290
3 153 177 136
3 120 91 111
3 345 230 277
3 230 343 42
3 50 313 222
3 24 26 258
3 146 195 147
3 260 275 341
3 89 172 195
3 395 129 57
3 25 351 396
3 253 57 129
3 99 93 233
3 377 397 378
3 398 212 211
3 398 399 400
3 241 401 207
3 291 293 371
3 366 363 205
3 402 43 403
3 157 404 294
3 321 45 405
3 352 153 136
3 337 249 352
3 257 356 242
3 147 60 273
3 110 109 406
3 63 65 219
3 87 89 146
3 407 408 320
3 131 217 373
3 181 183 242
3 409 410 13
3 242 356 243
3 393 159 411
3 175 247 213
3 256 183 412
3 258 273 54
3 160 159 393
3 127 175 209
3 41 413 238
3 24 313 49
3 205 413 366
3 268 22 99
3 414 411 234
3 415 405 296
3 219 238 197
3 362 208 363
3 157 287 416
3 208 390 239
3 120 110 417
3 294 418 406
3 251 110 418
3 373 216 374
3 378 419 374
3 372 371 387
3 112 420 265
3 342 29 421
3 76 78 351
3 223 339 28
3 102 295 231
3 422 299 266
3 219 172 89
3 281 280 401
3 29 423 421
3 421 282 284
3 197 424 329
3 408 303 320
3 219 197 172
3 69 91 318
3 252 418 385
3 287 156 152
3 126 125 155
3 150 75 151
3 197 329 198
3 282 421 423
3 404 77 294
3 418 294 385
3 423 380 282
3 294 202 157
3 172 60 195
3 303 408 301
3 329 279 198
3 391 336 264
3 351 50 76
3 425 426 427
3 204 388 428
3 385 294 76
3 54 60 243
3 202 406 130
3 291 371 390
3 27 391 3
3 429 430 431
3 155 157 201
3 240 239 390
3 387 293 292
3 361 394 8
3 203 378 397
3 137 308 135
3 377 374 427
3 355 142 7
3 167 166 235
3 267 266 285
3 387 368 372
3 418 252 251
3 354 194 69
3 432 235 433
3 371 293 387
3 120 315 190
3 410 419 14
3 429 203 397
3 235 434 167
3 401 241 240
3 368 435 432
3 413 280 424
3 275 300 341
3 75 128 73
3 286 72 322
3 157 156 287
3 155 201 163
3 340 300 224
3 315 314 360
3 201 157 202
3 436 437 438
3 397 377 430
3 379 439 227
3 388 204 44
3 257 242 183
3 356 376 357
3 18 20 440
3 60 59 243
3 409 212 400
3 402 409 400
3 208 291 390
3 121 67 46
3 174 231 44
3 122 9 11
3 246 20 245
3 46 67 66
3 383 341 340
3 92 297 298
3 109 130 406
3 92 298 111
3 181 242 59
3 108 322 72
3 233 66 68
3 272 132 353
3 232 327 233
3 318 190 232
3 330 284 283
3 202 294 406
3 264 440 4
3 394 301 408
3 303 302 320
3 17 12 15
3 12 14 15
3 61 326 309
3 119 220 0
3 369 221 119
3 59 58 198
3 172 197 58
3 348 343 37
3 344 342 343
3 81 326 61
3 109 86 130
3 404 416 151
3 238 219 192
3 358 52 243
3 331 439 441
3 40 72 179
3 37 246 35
3 5 4 440
3 442 75 289
3 194 56 215
3 92 55 297
3 353 226 272
3 379 339 439
3 413 41 366
3 184 186 325
3 398 43 399
3 226 357 217
3 370 165 171
3 201 130 443
3 307 334 187
3 101 415 295
3 383 322 250
3 177 288 75
3 101 31 415
3 385 260 252
3 137 444 382
3 381 382 444
3 443 395 169
3 271 270 412
3 412 445 271
3 187 350 337
3 300 222 224
3 180 28 367
3 249 153 352
3 286 322 383
3 122 70 67
3 144 316 229
3 429 15 203
3 376 429 431
3 446 97 269
3 324 163 169
3 250 252 383
3 260 341 383
3 54 53 258
3 98 106 93
3 262 275 260
3 263 447 276
3 107 328 108
3 335 448 264
3 66 233 93
3 36 35 40
3 348 42 343
3 373 449 450
3 131 133 217
3 39 230 42
3 403 321 415
3 348 37 36
3 216 218 425
3 439 358 357
3 248 422 114
3 52 54 243
3 420 112 114
3 191 323 108
3 451 379 353
3 110 406 418
3 346 122 121
3 126 165 127
3 126 324 165
3 446 11 10
3 313 53 331
3 315 191 190
3 65 192 219
3 452 139 34
3 118 192 199
3 253 85 57
3 368 166 281
3 138 6 139
3 129 395 443
3 211 271 398
3 256 412 270
3 338 223 222
3 85 297 57
3 331 375 439
3 432 433 368
3 414 276 393
3 234 411 159
3 210 311 79
3 105 106 23
3 187 334 213
3 443 130 129
3 276 414 234
3 411 414 393
3 26 389 259
3 439 375 358
3 53 375 331
3 265 267 25
3 318 120 190
3 434 349 167
3 316 144 317
3 203 14 419
3 409 419 410
3 158 99 233
3 233 263 158
3 238 413 424
3 401 280 413
3 376 15 429
3 16 15 376
3 238 424 197
3 280 329 424
3 271 388 398
3 106 98 23
3 381 334 307
3 207 413 205
3 211 13 17
3 410 14 13
3 394 51 8
3 302 301 394
3 100 349 235
3 453 74 73
3 222 331 338
3 275 262 50
3 57 370 171
3 57 170 395
3 205 363 208
3 70 269 97
3 69 319 70
3 127 454 104
3 40 35 19
3 174 124 32
3 174 44 124
3 260 385 261
3 286 224 180
3 83 82 255
3 448 263 264
3 82 176 255
3 65 244 193
3 336 335 264
3 162 254 244
3 392 327 72
3 208 2 291
3 43 402 399
3 266 265 420
3 285 266 355
3 267 285 138
3 20 246 440
3 208 362 2
3 264 18 440
3 261 76 50
3 422 248 299
3 138 259 267
3 134 88 317
3 267 389 25
3 253 86 85
3 18 264 327
3 27 5 333
3 449 284 455
3 28 380 29
3 314 251 360
3 357 227 439
3 191 315 360
3 449 373 284
3 372 368 281
3 112 289 288
3 304 196 456
3 90 63 89
3 177 113 288
3 441 439 339
3 290 279 281
3 104 454 210
3 430 429 397
3 268 160 393
3 333 336 27
3 268 393 23
3 226 225 357
3 431 430 426
3 62 141 81
3 120 417 314
3 143 142 355
3 142 62 7
3 91 120 318
3 62 142 141
3 358 53 52
3 365 200 384
3 94 105 96
3 154 145 359
3 452 140 139
3 88 116 115
3 93 106 94
3 78 442 289
3 254 221 369
3 2 1 221
3 450 455 131
3 259 138 140
3 131 373 450
3 237 316 88
3 1 0 220
3 50 262 261
3 448 335 332
3 425 427 374
3 332 276 447
3 265 457 112
3 313 50 49
3 456 312 304
3 40 39 36
3 443 163 201
3 126 163 324
3 179 178 40
3 330 455 284
3 41 118 0
3 454 127 209
3 451 353 455
3 282 451 330
3 38 40 178
3 367 149 278
3 347 199 306
3 347 119 199
3 383 340 286
3 340 224 286
3 200 148 147
3 407 320 148
3 451 282 380
3 377 427 426
3 417 110 251
3 431 426 425
3 334 381 453
3 104 73 128
3 151 75 442
3 442 404 151
3 209 210 454
3 251 314 417
3 339 380 28
3 367 28 149
3 368 386 435
3 386 292 435
3 426 430 377
3 296 405 45
3 415 321 405
3 22 21 99
3 184 326 361
3 324 169 171
3 170 57 171
3 43 398 388
3 184 361 185
3 190 328 232
3 423 29 380
3 72 328 107
3 404 157 416
3 378 203 419
3 151 416 287
3 307 308 382
3 451 380 379
3 123 349 100
3 273 384 274
3 200 452 34
3 5 440 246
3 246 37 5
3 235 349 434
3 299 355 266
3 271 428 388
3 400 399 402
3 113 177 153
3 112 288 113
3 299 143 355
3 227 353 379
3 337 135 307
3 226 217 272
3 447 448 332
3 398 400 212
3 311 80 79
3 257 16 376
3 311 73 80
3 447 263 448
3 51 394 408
3 132 131 455
3 168 281 166
3 168 124 281
3 455 353 132
3 212 409 13
3 364 458 407
3 21 98 99
3 213 164 370
3 163 443 169
3 132 272 133
3 170 169 395
3 16 256 270
3 250 323 251
3 200 458 364
3 250 322 323
3 392 19 18
3 148 364 407
3 327 392 18
3 450 449 455
3 117 144 229
3 115 117 228
3 265 25 457
3 7 6 285
3 139 6 34
3 88 87 116
3 270 17 16
3 444 177 74
3 352 136 135
3 254 305 193
3 356 358 243
3 112 457 289
3 257 376 356
3 146 154 87
3 150 152 128
3 180 223 28
3 345 344 343
3 308 137 382
3 230 345 343
3 270 211 17
3 286 180 179
3 75 150 128
3 445 204 428
3 25 396 457
3 396 289 457
3 428 271 445
3 117 359 145
3 35 245 19
3 71 97 56
3 422 420 114
3 422 266 420
3 338 441 339
3 338 331 441
3 346 9 122
3 10 9 346
3 351 289 396
3 351 78 289
3 442 78 77
3 77 404 442
3 51 408 458
3 444 136 177
3 64 162 244
3 217 216 373
3 350 189 249
3 248 153 249
3 357 225 227
3 376 217 357
3 245 20 19
3 161 254 162
3 236 433 235
3 236 368 433
3 431 218 376
3 431 425 218
3 374 216 425
3 249 189 188
3 350 187 189
3 372 401 240
3 204 445 412
3 453 381 74
3 453 310 334
3 230 39 278
3 204 412 183
3 230 278 30
3 115 228 237
3 178 367 38
3 334 311 210
3 115 237 88
3 210 79 104
3 413 207 401
3 269 122 11
3 444 74 381
3 458 408 407
3 200 51 458
3 90 304 63
3 90 196 304
3 11 446 269
3 365 452 200
3 278 38 367
3 137 136 444
3 334 310 311
3 453 73 310
3 365 140 452
3 330 451 455
3 239 207 206
3 459 460 461
3 462 463 464
3 317 144 196
3 295 296 231
3 465 466 467
3 295 415 296
3 460 459 438
3 468 469 470
3 471 472 473
3 474 475 476
3 477 478 479
3 480 481 482
3 134 317 196
3 483 484 485
3 372 281 401
3 486 487 488
3 489 490 491
3 492 493 494
3 475 474 495
3 496 497 498
3 463 462 499
3 500 501 502
3 503 504 505
3 506 507 505
3 498 508 509
3 510 511 512
3 403 43 321
3 513 514 515
3 516 517 518
3 519 520 521
3 485 507 522
3 523 524 525
3 526 527 528
3 529 526 528
3 530 531 532
3 533 534 535
3 536 537 538
3 520 519 539
3 540 541 542
3 543 544 513
3 541 545 546
3 547 548 549
3 550 541 540
3 522 551 552
3 553 490 489
3 459 436 438
3 554 555 556
3 557 558 559
3 560 561 503
3 562 563 564
3 565 566 512
3 461 567 459
3 568 569 557
3 570 571 572
3 573 521 574
3 575 576 577
3 578 579 580
3 581 582 583
3 584 481 480
3 585 586 587
3 508 588 589
3 590 591 592
3 593 594 595
3 513 596 514
3 459 597 598
3 599 600 601
3 602 603 604
3 605 606 607
3 608 609 576
3 610 611 612
3 613 614 615
3 616 617 618
3 619 549 548
3 620 621 511
3 622 623 624
3 462 625 626
3 627 628 490
3 629 533 535
3 630 538 573
3 563 603 631
3 632 633 634
3 635 636 510
3 574 637 576
3 579 578 600
3 638 621 620
3 639 640 641
3 642 579 600
3 643 644 592
3 645 646 647
3 648 569 649
3 650 651 560
3 572 652 653
3 645 654 646
3 469 655 656
3 646 654 657
3 591 594 579
3 658 659 660
3 658 661 659
3 493 477 662
3 547 543 663
3 664 482 481
3 665 551 666
3 667 668 669
3 670 595 671
3 592 591 579
3 579 642 550
3 545 672 546
3 511 621 512
3 613 615 673
3 674 675 676
3 677 678 617
3 568 470 679
3 469 656 470
3 680 681 682
3 580 683 684
3 684 685 686
3 655 469 638
3 576 637 608
3 687 437 436
3 589 688 689
3 677 637 690
3 691 494 692
3 693 694 680
3 695 696 697
3 626 605 698
3 617 678 699
3 571 652 572
3 697 696 538
3 464 700 701
3 515 702 703
3 491 571 570
3 592 644 704
3 562 526 529
3 705 706 707
3 632 708 597
3 613 673 709
3 710 551 665
3 584 711 481
3 539 610 712
3 713 714 715
3 675 645 647
3 716 653 488
3 717 570 572
3 681 627 682
3 679 510 568
3 628 718 646
3 719 720 721
3 600 578 686
3 684 686 578
3 722 723 479
3 709 724 649
3 725 482 664
3 726 727 728
3 729 730 497
3 638 511 679
3 731 732 733
3 734 669 735
3 713 661 714
3 736 737 738
3 563 631 739
3 699 607 740
3 741 709 673
3 526 544 543
3 669 742 623
3 467 636 465
3 723 654 674
3 743 706 744
3 745 746 747
3 716 487 746
3 465 636 635
3 665 648 710
3 671 595 514
3 593 595 670
3 717 653 716
3 601 600 748
3 688 640 689
3 501 610 749
3 750 751 752
3 753 754 755
3 596 756 562
3 657 628 646
3 598 597 708
3 641 757 522
3 730 749 531
3 758 753 755
3 759 545 760
3 749 730 729
3 468 559 469
3 465 635 466
3 460 761 530
3 636 762 614
3 467 466 762
3 763 617 764
3 617 616 764
3 741 765 766
3 504 503 767
3 768 769 561
3 628 627 681
3 770 494 771
3 627 772 682
3 525 773 523
3 496 498 509
3 562 756 526
3 774 775 551
3 722 654 723
3 776 710 648
3 557 648 777
3 486 747 487
3 482 725 768
3 777 778 557
3 779 780 541
3 781 527 782
3 607 783 784
3 785 786 554
3 777 547 778
3 734 534 533
3 787 784 783
3 725 788 789
3 790 589 588
3 502 729 791
3 792 793 794
3 691 795 796
3 549 797 558
3 636 649 510
3 749 539 798
3 613 636 614
3 799 800 582
3 801 765 802
3 718 628 754
3 803 667 785
3 804 704 644
3 805 689 806
3 492 494 478
3 763 677 617
3 537 807 519
3 808 473 559
3 809 791 589
3 810 798 539
3 657 488 628
3 648 557 569
3 811 790 812
3 813 719 721
3 632 814 633
3 810 567 461
3 815 611 647
3 522 710 776
3 807 633 794
3 776 649 724
3 803 554 816
3 817 818 819
3 537 536 807
3 749 820 531
3 821 810 519
3 822 803 735
3 547 823 548
3 761 438 824
3 498 825 508
3 826 707 706
3 538 827 573
3 638 620 511
3 733 828 775
3 814 794 633
3 829 499 830
3 470 656 679
3 468 470 568
3 521 573 827
3 695 575 696
3 511 510 679
3 598 634 633
3 666 775 828
3 640 639 831
3 832 715 833
3 834 680 694
3 835 836 587
3 659 713 660
3 626 698 499
3 594 591 837
3 590 704 591
3 747 746 487
3 838 658 830
3 625 839 787
3 838 830 499
3 505 711 506
3 768 725 789
3 840 720 835
3 534 556 672
3 841 842 799
3 843 844 785
3 845 798 810
3 743 806 846
3 752 847 848
3 849 738 523
3 850 818 502
3 716 488 487
3 537 519 521
3 732 851 736
3 604 603 852
3 488 853 486
3 714 661 854
3 784 787 839
3 474 476 855
3 848 847 834
3 598 436 459
3 543 513 703
3 663 703 702
3 466 741 856
3 829 463 499
3 634 598 708
3 832 857 715
3 485 522 858
3 563 562 529
3 564 596 562
3 784 839 740
3 742 669 734
3 623 622 687
3 625 701 700
3 794 814 859
3 625 606 626
3 489 491 570
3 495 855 802
3 476 724 855
3 571 491 652
3 801 766 765
3 498 497 860
3 459 814 597
3 498 861 825
3 520 539 712
3 647 718 753
3 730 727 860
3 646 718 647
3 508 589 791
3 778 549 557
3 496 729 497
3 788 725 664
3 664 504 769
3 820 749 845
3 515 548 823
3 527 526 543
3 637 712 612
3 739 631 514
3 823 663 515
3 862 514 631
3 513 515 703
3 736 812 588
3 847 752 751
3 723 674 817
3 791 729 496
3 587 836 585
3 750 832 751
3 539 749 610
3 605 607 678
3 849 523 773
3 684 602 685
3 840 835 863
3 677 690 678
3 528 852 529
3 581 840 799
3 574 520 637
3 864 865 866
3 660 713 857
3 658 838 867
3 663 543 703
3 868 807 869
3 685 773 870
3 871 872 486
3 816 556 534
3 873 673 874
3 833 847 832
3 592 704 590
3 762 636 467
3 815 758 875
3 499 698 867
3 690 815 698
3 803 816 735
3 869 807 793
3 645 674 654
3 579 643 592
3 722 876 654
3 754 854 755
3 482 877 878
3 572 653 717
3 689 480 806
3 745 716 746
3 836 835 879
3 628 491 490
3 553 627 490
3 637 520 712
3 880 609 608
3 606 783 607
3 523 825 524
3 685 881 748
3 733 882 528
3 527 883 528
3 823 547 663
3 690 637 612
3 629 726 884
3 547 777 543
3 885 728 742
3 690 612 815
3 829 830 660
3 773 852 882
3 768 877 482
3 496 509 791
3 877 720 719
3 825 523 508
3 614 856 615
3 729 501 749
3 495 474 855
3 612 712 610
3 773 685 604
3 855 724 802
3 501 676 610
3 870 773 525
3 886 585 662
3 727 761 728
3 824 438 624
3 814 459 859
3 719 878 877
3 748 600 686
3 599 601 545
3 793 792 869
3 715 857 713
3 750 857 832
3 882 849 773
3 834 887 888
3 732 849 882
3 657 889 853
3 878 719 846
3 886 890 586
3 891 892 893
3 864 691 692
3 674 676 817
3 771 493 879
3 662 585 836
3 545 541 642
3 555 554 786
3 882 733 732
3 527 665 782
3 832 847 751
3 815 647 758
3 856 874 615
3 684 683 602
3 580 684 578
3 847 833 834
3 854 715 714
3 887 894 693
3 587 892 835
3 863 841 799
3 782 828 781
3 811 688 790
3 602 604 685
3 588 812 790
3 685 748 686
3 758 647 753
3 682 693 680
3 693 682 895
3 867 875 755
3 757 774 522
3 632 597 814
3 717 716 745
3 640 831 480
3 801 724 896
3 737 736 588
3 840 516 518
3 736 851 812
3 767 769 504
3 635 510 566
3 568 510 649
3 741 673 873
3 709 741 897
3 837 595 594
3 757 851 774
3 731 851 732
3 808 559 558
3 501 729 502
3 734 533 885
3 898 826 743
3 744 819 818
3 500 676 501
3 505 504 664
3 581 799 582
3 872 745 747
3 864 866 486
3 743 744 806
3 529 603 563
3 529 852 603
3 610 676 675
3 817 819 842
3 652 488 653
3 483 899 484
3 580 579 594
3 645 675 674
3 660 857 750
3 559 468 557
3 626 606 605
3 853 488 657
3 503 507 560
3 558 472 471
3 468 568 557
3 544 526 756
3 851 811 812
3 544 756 596
3 551 522 774
3 813 721 720
3 649 569 568
3 800 826 583
3 648 649 776
3 777 648 665
3 651 650 484
3 884 533 629
3 767 503 561
3 552 551 710
3 707 819 705
3 762 856 614
3 611 610 675
3 842 890 886
3 886 662 477
3 876 795 900
3 739 564 563
3 848 888 752
3 790 688 589
3 664 769 788
3 558 557 549
3 786 844 555
3 640 480 689
3 740 607 784
3 817 676 818
3 723 817 842
3 854 867 755
3 576 573 574
3 755 875 758
3 788 769 789
3 520 574 521
3 900 889 657
3 901 672 556
3 871 865 770
3 735 816 534
3 795 864 853
3 479 842 477
3 570 745 489
3 851 731 774
3 602 902 603
3 903 797 619
3 536 696 575
3 726 498 727
3 666 551 775
3 593 670 683
3 570 717 745
3 667 803 822
3 902 670 862
3 843 901 844
3 555 844 901
3 672 545 759
3 795 876 796
3 849 732 736
3 785 667 804
3 698 815 875
3 707 799 819
3 872 747 486
3 863 891 841
3 842 886 477
3 757 641 640
3 770 865 692
3 724 476 899
3 819 744 706
3 608 637 677
3 604 852 773
3 528 882 852
3 718 754 753
3 763 904 880
3 833 754 834
3 781 828 733
3 658 660 830
3 666 828 782
3 672 759 535
3 518 517 720
3 547 549 778
3 579 550 905
3 550 644 905
3 514 862 671
3 885 742 734
3 728 884 726
3 518 720 840
3 629 759 760
3 761 824 728
3 906 806 744
3 724 899 483
3 484 899 651
3 727 530 761
3 887 834 894
3 805 589 689
3 809 744 850
3 722 796 876
3 902 631 603
3 644 540 780
3 691 864 795
3 565 466 566
3 566 466 635
3 834 754 680
3 549 619 797
3 771 494 493
3 794 859 792
3 530 727 730
3 480 482 846
3 727 498 860
3 738 508 523
3 782 665 666
3 483 776 724
3 609 577 576
3 736 738 849
3 858 522 776
3 859 459 567
3 514 595 837
3 486 866 871
3 777 665 527
3 789 769 768
3 839 625 700
3 475 899 476
3 492 477 493
3 478 477 492
3 793 807 794
3 530 532 460
3 625 462 701
3 436 598 633
3 867 838 499
3 632 634 708
3 663 702 515
3 826 800 707
3 818 676 500
3 809 906 744
3 859 869 792
3 907 760 545
3 908 461 532
3 507 641 522
3 698 605 690
3 561 560 651
3 870 601 881
3 544 596 513
3 564 514 596
3 767 561 769
3 675 647 611
3 507 485 560
3 631 902 862
3 678 690 605
3 757 640 688
3 652 628 488
3 652 491 628
3 661 658 867
3 589 805 809
3 588 508 737
3 660 750 463
3 612 611 815
3 660 463 829
3 802 724 801
3 903 473 472
3 762 466 856
3 687 436 633
3 580 594 593
3 618 699 740
3 655 679 656
3 678 607 699
3 739 514 564
3 638 679 655
3 896 724 709
3 667 704 804
3 889 900 795
3 691 478 494
3 437 622 624
3 623 824 624
3 527 781 883
3 818 500 502
3 437 687 622
3 543 777 527
3 624 438 437
3 516 581 517
3 583 517 581
3 890 893 586
3 873 856 741
3 495 765 475
3 740 839 700
3 895 682 772
3 524 760 907
3 613 649 636
3 726 629 909
3 463 700 464
3 586 585 886
3 791 809 502
3 538 696 536
3 576 630 573
3 905 643 579
3 643 905 644
3 499 462 626
3 874 856 873
3 766 897 741
3 896 766 801
3 695 576 575
3 891 835 892
3 770 771 879
3 649 613 709
3 791 509 508
3 587 893 892
3 580 593 683
3 510 512 566
3 502 809 850
3 581 516 840
3 719 813 898
3 464 701 462
3 898 517 826
3 831 711 584
3 744 818 850
3 851 757 811
3 506 639 507
3 898 846 719
3 706 743 826
3 904 763 764
3 901 546 672
3 521 827 537
3 908 532 531
3 836 879 662
3 870 881 685
3 601 748 881
3 601 907 545
3 785 844 786
3 486 853 864
3 575 577 536
3 803 785 554
3 795 853 889
3 893 587 586
3 890 891 893
3 806 480 846
3 733 883 781
3 831 584 480
3 834 888 848
3 883 733 528
3 787 606 625
3 804 910 843
3 907 601 870
3 550 642 541
3 522 552 710
3 629 535 759
3 692 494 770
3 780 540 542
3 897 896 709
3 475 651 899
3 651 475 561
3 810 461 908
3 749 798 845
3 868 519 807
3 810 539 519
3 730 531 530
3 553 693 772
3 811 757 688
3 865 871 866
3 512 621 565
3 742 824 623
3 878 846 482
3 780 542 541
3 897 766 896
3 662 879 493
3 864 692 865
3 787 783 606
3 535 534 672
3 898 743 846
3 693 895 772
3 742 728 824
3 627 553 772
3 641 507 639
3 902 602 683
3 508 738 737
3 726 909 498
3 438 761 460
3 538 537 827
3 858 483 485
3 629 760 909
3 630 697 538
3 532 461 460
3 796 479 478
3 910 541 546
3 813 517 898
3 843 785 804
3 519 868 821
3 901 843 546
3 555 901 556
3 911 868 869
3 797 472 558
3 820 845 810
3 567 911 869
3 810 821 911
3 813 720 517
3 805 906 809
3 776 483 858
3 507 503 505
3 731 733 775
3 821 868 911
3 498 909 861
3 560 485 650
3 861 909 760
3 545 642 599
3 650 485 484
3 805 806 906
3 548 515 619
3 885 533 884
3 885 884 728
3 599 642 600
3 816 554 556
3 796 478 691
3 731 775 774
3 479 796 722
3 567 869 859
3 671 862 670
3 583 582 800
3 704 837 591
3 681 680 754
3 683 670 902
3 707 800 799
3 723 842 479
3 630 695 697
3 472 797 903
3 630 576 695
3 819 706 705
3 842 819 799
3 835 891 863
3 525 907 870
3 907 525 524
3 825 760 524
3 473 808 471
3 910 804 779
3 808 558 471
3 799 840 863
3 608 677 763
3 833 715 854
3 910 546 843
3 681 754 628
3 517 583 826
3 765 495 802
3 890 842 841
3 694 894 834
3 694 693 894
3 822 668 667
3 735 669 668
3 890 841 891
3 833 854 754
3 734 735 534
3 497 730 860
3 616 618 740
3 867 854 661
3 609 880 577
3 698 875 867
3 825 861 760
3 608 763 880
3 810 911 567
3 639 506 831
3 644 550 540
3 804 644 780
3 577 880 536
3 822 735 668
3 713 659 661
3 820 810 908
3 657 876 900
3 657 654 876
3 617 699 618
3 664 481 711
3 664 711 505
3 910 779 541
3 673 615 874
3 820 908 531
3 711 831 506
3 804 780 779
3 23 741 466
3 419 770 879
3 81 623 687
3 435 752 888
3 187 704 667
3 312 904 764
3 161 764 616
3 254 616 740
3 196 536 880
3 31 553 489
3 276 765 741
3 213 837 704
3 48 638 469
3 56 619 515
3 37 768 561
3 333 475 765
3 292 750 752
3 121 469 559
3 143 669 623
3 5 561 475
3 96 565 621
3 10 559 473
3 221 740 700
3 2 700 463
3 105 466 565
3 188 667 669
3 57 515 514
3 402 872 871
3 284 835 720
3 291 463 750
3 370 514 837
3 456 880 904
3 326 687 633
3 320 633 807
3 144 807 536
3 83 621 638
3 432 888 887
3 409 871 770
3 342 877 768
3 374 879 835
3 97 903 619
3 415 489 745
3 421 720 877
3 446 473 903
3 235 887 693
3 403 745 872
3 100 693 553
3 741 23 276
3 770 419 409
3 623 81 143
3 752 435 292
3 704 187 213
3 904 312 456
3 764 161 312
3 616 254 161
3 536 196 144
3 553 31 100
3 765 276 333
3 837 213 370
3 638 48 83
3 619 56 97
3 768 37 342
3 475 333 5
3 750 292 291
3 469 121 48
3 669 143 188
3 561 5 37
3 565 96 105
3 559 10 121
3 740 221 254
3 700 2 221
3 466 105 23
3 667 188 187
3 515 57 56
3 872 402 403
3 835 284 374
3 463 291 2
3 514 370 57
3 880 456 196
3 687 326 81
3 633 320 326
3 807 144 320
3 621 83 96
3 888 432 435
3 871 409 402
3 877 342 421
3 879 374 419
3 903 97 446
3 489 415 31
3 720 421 284
3 473 446 10
3 887 235 432
3 745 403 415
3 693 100 235
